<svg version="1.1" id="style0-svg" xmlns="http://www.w3.org/2000/svg" xmlns:xlink="http://www.w3.org/1999/xlink" x="0px" y="0px" width="800" height="800" viewBox="0 0 400 400" style="enable-background:new 0 0 400 400;" xml:space="preserve"><g class="addsvg"><svg version="1.1" baseProfile="tiny" xmlns="http://www.w3.org/2000/svg" width="400" height="400" x="0" y="0" viewBox="0 0 400 400"><rect xmlns="http://www.w3.org/2000/svg" shape-rendering="optimizeSpeed" width="400" height="400" fill="#ffffff" x="0" y="0"></rect><rect shape-rendering="optimizeSpeed" fill="#000000" x="10" y="10" width="15.299999999999999" height="15.299999999999999"></rect><rect shape-rendering="optimizeSpeed" fill="#000000" x="25.2" y="10" width="15.299999999999999" height="15.299999999999999"></rect><rect shape-rendering="optimizeSpeed" fill="#000000" x="40.4" y="10" width="15.299999999999999" height="15.299999999999999"></rect><rect shape-rendering="optimizeSpeed" fill="#000000" x="55.599999999999994" y="10" width="15.299999999999999" height="15.299999999999999"></rect><rect shape-rendering="optimizeSpeed" fill="#000000" x="70.8" y="10" width="15.299999999999999" height="15.299999999999999"></rect><rect shape-rendering="optimizeSpeed" fill="#000000" x="86" y="10" width="15.299999999999999" height="15.299999999999999"></rect><rect shape-rendering="optimizeSpeed" fill="#000000" x="101.19999999999999" y="10" width="15.299999999999999" height="15.299999999999999"></rect><rect shape-rendering="optimizeSpeed" fill="#000000" x="146.79999999999998" y="10" width="15.299999999999999" height="15.299999999999999"></rect><rect shape-rendering="optimizeSpeed" fill="#000000" x="162" y="10" width="15.299999999999999" height="15.299999999999999"></rect><rect shape-rendering="optimizeSpeed" fill="#000000" x="192.39999999999998" y="10" width="15.299999999999999" height="15.299999999999999"></rect><rect shape-rendering="optimizeSpeed" fill="#000000" x="222.79999999999998" y="10" width="15.299999999999999" height="15.299999999999999"></rect><rect shape-rendering="optimizeSpeed" fill="#000000" x="283.59999999999997" y="10" width="15.299999999999999" height="15.299999999999999"></rect><rect shape-rendering="optimizeSpeed" fill="#000000" x="298.8" y="10" width="15.299999999999999" height="15.299999999999999"></rect><rect shape-rendering="optimizeSpeed" fill="#000000" x="314" y="10" width="15.299999999999999" height="15.299999999999999"></rect><rect shape-rendering="optimizeSpeed" fill="#000000" x="329.2" y="10" width="15.299999999999999" height="15.299999999999999"></rect><rect shape-rendering="optimizeSpeed" fill="#000000" x="344.4" y="10" width="15.299999999999999" height="15.299999999999999"></rect><rect shape-rendering="optimizeSpeed" fill="#000000" x="359.59999999999997" y="10" width="15.299999999999999" height="15.299999999999999"></rect><rect shape-rendering="optimizeSpeed" fill="#000000" x="374.79999999999995" y="10" width="15.299999999999999" height="15.299999999999999"></rect><rect shape-rendering="optimizeSpeed" fill="#000000" x="10" y="25.2" width="15.299999999999999" height="15.299999999999999"></rect><rect shape-rendering="optimizeSpeed" fill="#000000" x="101.19999999999999" y="25.2" width="15.299999999999999" height="15.299999999999999"></rect><rect shape-rendering="optimizeSpeed" fill="#000000" x="131.6" y="25.2" width="15.299999999999999" height="15.299999999999999"></rect><rect shape-rendering="optimizeSpeed" fill="#000000" x="162" y="25.2" width="15.299999999999999" height="15.299999999999999"></rect><rect shape-rendering="optimizeSpeed" fill="#000000" x="207.6" y="25.2" width="15.299999999999999" height="15.299999999999999"></rect><rect shape-rendering="optimizeSpeed" fill="#000000" x="283.59999999999997" y="25.2" width="15.299999999999999" height="15.299999999999999"></rect><rect shape-rendering="optimizeSpeed" fill="#000000" x="374.79999999999995" y="25.2" width="15.299999999999999" height="15.299999999999999"></rect><rect shape-rendering="optimizeSpeed" fill="#000000" x="10" y="40.4" width="15.299999999999999" height="15.299999999999999"></rect><rect shape-rendering="optimizeSpeed" fill="#000000" x="40.4" y="40.4" width="15.299999999999999" height="15.299999999999999"></rect><rect shape-rendering="optimizeSpeed" fill="#000000" x="55.599999999999994" y="40.4" width="15.299999999999999" height="15.299999999999999"></rect><rect shape-rendering="optimizeSpeed" fill="#000000" x="70.8" y="40.4" width="15.299999999999999" height="15.299999999999999"></rect><rect shape-rendering="optimizeSpeed" fill="#000000" x="101.19999999999999" y="40.4" width="15.299999999999999" height="15.299999999999999"></rect><rect shape-rendering="optimizeSpeed" fill="#000000" x="177.2" y="40.4" width="15.299999999999999" height="15.299999999999999"></rect><rect shape-rendering="optimizeSpeed" fill="#000000" x="207.6" y="40.4" width="15.299999999999999" height="15.299999999999999"></rect><rect shape-rendering="optimizeSpeed" fill="#000000" x="222.79999999999998" y="40.4" width="15.299999999999999" height="15.299999999999999"></rect><rect shape-rendering="optimizeSpeed" fill="#000000" x="283.59999999999997" y="40.4" width="15.299999999999999" height="15.299999999999999"></rect><rect shape-rendering="optimizeSpeed" fill="#000000" x="314" y="40.4" width="15.299999999999999" height="15.299999999999999"></rect><rect shape-rendering="optimizeSpeed" fill="#000000" x="329.2" y="40.4" width="15.299999999999999" height="15.299999999999999"></rect><rect shape-rendering="optimizeSpeed" fill="#000000" x="344.4" y="40.4" width="15.299999999999999" height="15.299999999999999"></rect><rect shape-rendering="optimizeSpeed" fill="#000000" x="374.79999999999995" y="40.4" width="15.299999999999999" height="15.299999999999999"></rect><rect shape-rendering="optimizeSpeed" fill="#000000" x="10" y="55.599999999999994" width="15.299999999999999" height="15.299999999999999"></rect><rect shape-rendering="optimizeSpeed" fill="#000000" x="40.4" y="55.599999999999994" width="15.299999999999999" height="15.299999999999999"></rect><rect shape-rendering="optimizeSpeed" fill="#000000" x="55.599999999999994" y="55.599999999999994" width="15.299999999999999" height="15.299999999999999"></rect><rect shape-rendering="optimizeSpeed" fill="#000000" x="70.8" y="55.599999999999994" width="15.299999999999999" height="15.299999999999999"></rect><rect shape-rendering="optimizeSpeed" fill="#000000" x="101.19999999999999" y="55.599999999999994" width="15.299999999999999" height="15.299999999999999"></rect><rect shape-rendering="optimizeSpeed" fill="#000000" x="131.6" y="55.599999999999994" width="15.299999999999999" height="15.299999999999999"></rect><rect shape-rendering="optimizeSpeed" fill="#000000" x="177.2" y="55.599999999999994" width="15.299999999999999" height="15.299999999999999"></rect><rect shape-rendering="optimizeSpeed" fill="#000000" x="192.39999999999998" y="55.599999999999994" width="15.299999999999999" height="15.299999999999999"></rect><rect shape-rendering="optimizeSpeed" fill="#000000" x="207.6" y="55.599999999999994" width="15.299999999999999" height="15.299999999999999"></rect><rect shape-rendering="optimizeSpeed" fill="#000000" x="238" y="55.599999999999994" width="15.299999999999999" height="15.299999999999999"></rect><rect shape-rendering="optimizeSpeed" fill="#000000" x="253.2" y="55.599999999999994" width="15.299999999999999" height="15.299999999999999"></rect><rect shape-rendering="optimizeSpeed" fill="#000000" x="283.59999999999997" y="55.599999999999994" width="15.299999999999999" height="15.299999999999999"></rect><rect shape-rendering="optimizeSpeed" fill="#000000" x="314" y="55.599999999999994" width="15.299999999999999" height="15.299999999999999"></rect><rect shape-rendering="optimizeSpeed" fill="#000000" x="329.2" y="55.599999999999994" width="15.299999999999999" height="15.299999999999999"></rect><rect shape-rendering="optimizeSpeed" fill="#000000" x="344.4" y="55.599999999999994" width="15.299999999999999" height="15.299999999999999"></rect><rect shape-rendering="optimizeSpeed" fill="#000000" x="374.79999999999995" y="55.599999999999994" width="15.299999999999999" height="15.299999999999999"></rect><rect shape-rendering="optimizeSpeed" fill="#000000" x="10" y="70.8" width="15.299999999999999" height="15.299999999999999"></rect><rect shape-rendering="optimizeSpeed" fill="#000000" x="40.4" y="70.8" width="15.299999999999999" height="15.299999999999999"></rect><rect shape-rendering="optimizeSpeed" fill="#000000" x="55.599999999999994" y="70.8" width="15.299999999999999" height="15.299999999999999"></rect><rect shape-rendering="optimizeSpeed" fill="#000000" x="70.8" y="70.8" width="15.299999999999999" height="15.299999999999999"></rect><rect shape-rendering="optimizeSpeed" fill="#000000" x="101.19999999999999" y="70.8" width="15.299999999999999" height="15.299999999999999"></rect><rect shape-rendering="optimizeSpeed" fill="#000000" x="131.6" y="70.8" width="15.299999999999999" height="15.299999999999999"></rect><rect shape-rendering="optimizeSpeed" fill="#000000" x="146.79999999999998" y="70.8" width="15.299999999999999" height="15.299999999999999"></rect><rect shape-rendering="optimizeSpeed" fill="#000000" x="162" y="70.8" width="15.299999999999999" height="15.299999999999999"></rect><rect shape-rendering="optimizeSpeed" fill="#000000" x="177.2" y="70.8" width="15.299999999999999" height="15.299999999999999"></rect><rect shape-rendering="optimizeSpeed" fill="#000000" x="192.39999999999998" y="70.8" width="15.299999999999999" height="15.299999999999999"></rect><rect shape-rendering="optimizeSpeed" fill="#000000" x="207.6" y="70.8" width="15.299999999999999" height="15.299999999999999"></rect><rect shape-rendering="optimizeSpeed" fill="#000000" x="283.59999999999997" y="70.8" width="15.299999999999999" height="15.299999999999999"></rect><rect shape-rendering="optimizeSpeed" fill="#000000" x="314" y="70.8" width="15.299999999999999" height="15.299999999999999"></rect><rect shape-rendering="optimizeSpeed" fill="#000000" x="329.2" y="70.8" width="15.299999999999999" height="15.299999999999999"></rect><rect shape-rendering="optimizeSpeed" fill="#000000" x="344.4" y="70.8" width="15.299999999999999" height="15.299999999999999"></rect><rect shape-rendering="optimizeSpeed" fill="#000000" x="374.79999999999995" y="70.8" width="15.299999999999999" height="15.299999999999999"></rect><rect shape-rendering="optimizeSpeed" fill="#000000" x="10" y="86" width="15.299999999999999" height="15.299999999999999"></rect><rect shape-rendering="optimizeSpeed" fill="#000000" x="101.19999999999999" y="86" width="15.299999999999999" height="15.299999999999999"></rect><rect shape-rendering="optimizeSpeed" fill="#000000" x="146.79999999999998" y="86" width="15.299999999999999" height="15.299999999999999"></rect><rect shape-rendering="optimizeSpeed" fill="#000000" x="283.59999999999997" y="86" width="15.299999999999999" height="15.299999999999999"></rect><rect shape-rendering="optimizeSpeed" fill="#000000" x="374.79999999999995" y="86" width="15.299999999999999" height="15.299999999999999"></rect><rect shape-rendering="optimizeSpeed" fill="#000000" x="10" y="101.19999999999999" width="15.299999999999999" height="15.299999999999999"></rect><rect shape-rendering="optimizeSpeed" fill="#000000" x="25.2" y="101.19999999999999" width="15.299999999999999" height="15.299999999999999"></rect><rect shape-rendering="optimizeSpeed" fill="#000000" x="40.4" y="101.19999999999999" width="15.299999999999999" height="15.299999999999999"></rect><rect shape-rendering="optimizeSpeed" fill="#000000" x="55.599999999999994" y="101.19999999999999" width="15.299999999999999" height="15.299999999999999"></rect><rect shape-rendering="optimizeSpeed" fill="#000000" x="70.8" y="101.19999999999999" width="15.299999999999999" height="15.299999999999999"></rect><rect shape-rendering="optimizeSpeed" fill="#000000" x="86" y="101.19999999999999" width="15.299999999999999" height="15.299999999999999"></rect><rect shape-rendering="optimizeSpeed" fill="#000000" x="101.19999999999999" y="101.19999999999999" width="15.299999999999999" height="15.299999999999999"></rect><rect shape-rendering="optimizeSpeed" fill="#000000" x="131.6" y="101.19999999999999" width="15.299999999999999" height="15.299999999999999"></rect><rect shape-rendering="optimizeSpeed" fill="#000000" x="162" y="101.19999999999999" width="15.299999999999999" height="15.299999999999999"></rect><rect shape-rendering="optimizeSpeed" fill="#000000" x="192.39999999999998" y="101.19999999999999" width="15.299999999999999" height="15.299999999999999"></rect><rect shape-rendering="optimizeSpeed" fill="#000000" x="222.79999999999998" y="101.19999999999999" width="15.299999999999999" height="15.299999999999999"></rect><rect shape-rendering="optimizeSpeed" fill="#000000" x="253.2" y="101.19999999999999" width="15.299999999999999" height="15.299999999999999"></rect><rect shape-rendering="optimizeSpeed" fill="#000000" x="283.59999999999997" y="101.19999999999999" width="15.299999999999999" height="15.299999999999999"></rect><rect shape-rendering="optimizeSpeed" fill="#000000" x="298.8" y="101.19999999999999" width="15.299999999999999" height="15.299999999999999"></rect><rect shape-rendering="optimizeSpeed" fill="#000000" x="314" y="101.19999999999999" width="15.299999999999999" height="15.299999999999999"></rect><rect shape-rendering="optimizeSpeed" fill="#000000" x="329.2" y="101.19999999999999" width="15.299999999999999" height="15.299999999999999"></rect><rect shape-rendering="optimizeSpeed" fill="#000000" x="344.4" y="101.19999999999999" width="15.299999999999999" height="15.299999999999999"></rect><rect shape-rendering="optimizeSpeed" fill="#000000" x="359.59999999999997" y="101.19999999999999" width="15.299999999999999" height="15.299999999999999"></rect><rect shape-rendering="optimizeSpeed" fill="#000000" x="374.79999999999995" y="101.19999999999999" width="15.299999999999999" height="15.299999999999999"></rect><rect shape-rendering="optimizeSpeed" fill="#000000" x="131.6" y="116.39999999999999" width="15.299999999999999" height="15.299999999999999"></rect><rect shape-rendering="optimizeSpeed" fill="#000000" x="162" y="116.39999999999999" width="15.299999999999999" height="15.299999999999999"></rect><rect shape-rendering="optimizeSpeed" fill="#000000" x="177.2" y="116.39999999999999" width="15.299999999999999" height="15.299999999999999"></rect><rect shape-rendering="optimizeSpeed" fill="#000000" x="207.6" y="116.39999999999999" width="15.299999999999999" height="15.299999999999999"></rect><rect shape-rendering="optimizeSpeed" fill="#000000" x="238" y="116.39999999999999" width="15.299999999999999" height="15.299999999999999"></rect><rect shape-rendering="optimizeSpeed" fill="#000000" x="25.2" y="131.6" width="15.299999999999999" height="15.299999999999999"></rect><rect shape-rendering="optimizeSpeed" fill="#000000" x="55.599999999999994" y="131.6" width="15.299999999999999" height="15.299999999999999"></rect><rect shape-rendering="optimizeSpeed" fill="#000000" x="70.8" y="131.6" width="15.299999999999999" height="15.299999999999999"></rect><rect shape-rendering="optimizeSpeed" fill="#000000" x="86" y="131.6" width="15.299999999999999" height="15.299999999999999"></rect><rect shape-rendering="optimizeSpeed" fill="#000000" x="101.19999999999999" y="131.6" width="15.299999999999999" height="15.299999999999999"></rect><rect shape-rendering="optimizeSpeed" fill="#000000" x="131.6" y="131.6" width="15.299999999999999" height="15.299999999999999"></rect><rect shape-rendering="optimizeSpeed" fill="#000000" x="146.79999999999998" y="131.6" width="15.299999999999999" height="15.299999999999999"></rect><rect shape-rendering="optimizeSpeed" fill="#000000" x="207.6" y="131.6" width="15.299999999999999" height="15.299999999999999"></rect><rect shape-rendering="optimizeSpeed" fill="#000000" x="253.2" y="131.6" width="15.299999999999999" height="15.299999999999999"></rect><rect shape-rendering="optimizeSpeed" fill="#000000" x="268.4" y="131.6" width="15.299999999999999" height="15.299999999999999"></rect><rect shape-rendering="optimizeSpeed" fill="#000000" x="283.59999999999997" y="131.6" width="15.299999999999999" height="15.299999999999999"></rect><rect shape-rendering="optimizeSpeed" fill="#000000" x="314" y="131.6" width="15.299999999999999" height="15.299999999999999"></rect><rect shape-rendering="optimizeSpeed" fill="#000000" x="329.2" y="131.6" width="15.299999999999999" height="15.299999999999999"></rect><rect shape-rendering="optimizeSpeed" fill="#000000" x="359.59999999999997" y="131.6" width="15.299999999999999" height="15.299999999999999"></rect><rect shape-rendering="optimizeSpeed" fill="#000000" x="40.4" y="146.79999999999998" width="15.299999999999999" height="15.299999999999999"></rect><rect shape-rendering="optimizeSpeed" fill="#000000" x="55.599999999999994" y="146.79999999999998" width="15.299999999999999" height="15.299999999999999"></rect><rect shape-rendering="optimizeSpeed" fill="#000000" x="162" y="146.79999999999998" width="15.299999999999999" height="15.299999999999999"></rect><rect shape-rendering="optimizeSpeed" fill="#000000" x="207.6" y="146.79999999999998" width="15.299999999999999" height="15.299999999999999"></rect><rect shape-rendering="optimizeSpeed" fill="#000000" x="222.79999999999998" y="146.79999999999998" width="15.299999999999999" height="15.299999999999999"></rect><rect shape-rendering="optimizeSpeed" fill="#000000" x="238" y="146.79999999999998" width="15.299999999999999" height="15.299999999999999"></rect><rect shape-rendering="optimizeSpeed" fill="#000000" x="298.8" y="146.79999999999998" width="15.299999999999999" height="15.299999999999999"></rect><rect shape-rendering="optimizeSpeed" fill="#000000" x="314" y="146.79999999999998" width="15.299999999999999" height="15.299999999999999"></rect><rect shape-rendering="optimizeSpeed" fill="#000000" x="329.2" y="146.79999999999998" width="15.299999999999999" height="15.299999999999999"></rect><rect shape-rendering="optimizeSpeed" fill="#000000" x="344.4" y="146.79999999999998" width="15.299999999999999" height="15.299999999999999"></rect><rect shape-rendering="optimizeSpeed" fill="#000000" x="359.59999999999997" y="146.79999999999998" width="15.299999999999999" height="15.299999999999999"></rect><rect shape-rendering="optimizeSpeed" fill="#000000" x="10" y="162" width="15.299999999999999" height="15.299999999999999"></rect><rect shape-rendering="optimizeSpeed" fill="#000000" x="55.599999999999994" y="162" width="15.299999999999999" height="15.299999999999999"></rect><rect shape-rendering="optimizeSpeed" fill="#000000" x="101.19999999999999" y="162" width="15.299999999999999" height="15.299999999999999"></rect><rect shape-rendering="optimizeSpeed" fill="#000000" x="131.6" y="162" width="15.299999999999999" height="15.299999999999999"></rect><rect shape-rendering="optimizeSpeed" fill="#000000" x="207.6" y="162" width="15.299999999999999" height="15.299999999999999"></rect><rect shape-rendering="optimizeSpeed" fill="#000000" x="238" y="162" width="15.299999999999999" height="15.299999999999999"></rect><rect shape-rendering="optimizeSpeed" fill="#000000" x="268.4" y="162" width="15.299999999999999" height="15.299999999999999"></rect><rect shape-rendering="optimizeSpeed" fill="#000000" x="283.59999999999997" y="162" width="15.299999999999999" height="15.299999999999999"></rect><rect shape-rendering="optimizeSpeed" fill="#000000" x="329.2" y="162" width="15.299999999999999" height="15.299999999999999"></rect><rect shape-rendering="optimizeSpeed" fill="#000000" x="374.79999999999995" y="162" width="15.299999999999999" height="15.299999999999999"></rect><rect shape-rendering="optimizeSpeed" fill="#000000" x="25.2" y="177.2" width="15.299999999999999" height="15.299999999999999"></rect><rect shape-rendering="optimizeSpeed" fill="#000000" x="70.8" y="177.2" width="15.299999999999999" height="15.299999999999999"></rect><rect shape-rendering="optimizeSpeed" fill="#000000" x="86" y="177.2" width="15.299999999999999" height="15.299999999999999"></rect><rect shape-rendering="optimizeSpeed" fill="#000000" x="116.39999999999999" y="177.2" width="15.299999999999999" height="15.299999999999999"></rect><rect shape-rendering="optimizeSpeed" fill="#000000" x="131.6" y="177.2" width="15.299999999999999" height="15.299999999999999"></rect><rect shape-rendering="optimizeSpeed" fill="#000000" x="177.2" y="177.2" width="15.299999999999999" height="15.299999999999999"></rect><rect shape-rendering="optimizeSpeed" fill="#000000" x="207.6" y="177.2" width="15.299999999999999" height="15.299999999999999"></rect><rect shape-rendering="optimizeSpeed" fill="#000000" x="238" y="177.2" width="15.299999999999999" height="15.299999999999999"></rect><rect shape-rendering="optimizeSpeed" fill="#000000" x="253.2" y="177.2" width="15.299999999999999" height="15.299999999999999"></rect><rect shape-rendering="optimizeSpeed" fill="#000000" x="283.59999999999997" y="177.2" width="15.299999999999999" height="15.299999999999999"></rect><rect shape-rendering="optimizeSpeed" fill="#000000" x="329.2" y="177.2" width="15.299999999999999" height="15.299999999999999"></rect><rect shape-rendering="optimizeSpeed" fill="#000000" x="344.4" y="177.2" width="15.299999999999999" height="15.299999999999999"></rect><rect shape-rendering="optimizeSpeed" fill="#000000" x="359.59999999999997" y="177.2" width="15.299999999999999" height="15.299999999999999"></rect><rect shape-rendering="optimizeSpeed" fill="#000000" x="374.79999999999995" y="177.2" width="15.299999999999999" height="15.299999999999999"></rect><rect shape-rendering="optimizeSpeed" fill="#000000" x="10" y="192.39999999999998" width="15.299999999999999" height="15.299999999999999"></rect><rect shape-rendering="optimizeSpeed" fill="#000000" x="40.4" y="192.39999999999998" width="15.299999999999999" height="15.299999999999999"></rect><rect shape-rendering="optimizeSpeed" fill="#000000" x="55.599999999999994" y="192.39999999999998" width="15.299999999999999" height="15.299999999999999"></rect><rect shape-rendering="optimizeSpeed" fill="#000000" x="101.19999999999999" y="192.39999999999998" width="15.299999999999999" height="15.299999999999999"></rect><rect shape-rendering="optimizeSpeed" fill="#000000" x="131.6" y="192.39999999999998" width="15.299999999999999" height="15.299999999999999"></rect><rect shape-rendering="optimizeSpeed" fill="#000000" x="146.79999999999998" y="192.39999999999998" width="15.299999999999999" height="15.299999999999999"></rect><rect shape-rendering="optimizeSpeed" fill="#000000" x="162" y="192.39999999999998" width="15.299999999999999" height="15.299999999999999"></rect><rect shape-rendering="optimizeSpeed" fill="#000000" x="177.2" y="192.39999999999998" width="15.299999999999999" height="15.299999999999999"></rect><rect shape-rendering="optimizeSpeed" fill="#000000" x="207.6" y="192.39999999999998" width="15.299999999999999" height="15.299999999999999"></rect><rect shape-rendering="optimizeSpeed" fill="#000000" x="238" y="192.39999999999998" width="15.299999999999999" height="15.299999999999999"></rect><rect shape-rendering="optimizeSpeed" fill="#000000" x="283.59999999999997" y="192.39999999999998" width="15.299999999999999" height="15.299999999999999"></rect><rect shape-rendering="optimizeSpeed" fill="#000000" x="374.79999999999995" y="192.39999999999998" width="15.299999999999999" height="15.299999999999999"></rect><rect shape-rendering="optimizeSpeed" fill="#000000" x="10" y="207.6" width="15.299999999999999" height="15.299999999999999"></rect><rect shape-rendering="optimizeSpeed" fill="#000000" x="86" y="207.6" width="15.299999999999999" height="15.299999999999999"></rect><rect shape-rendering="optimizeSpeed" fill="#000000" x="146.79999999999998" y="207.6" width="15.299999999999999" height="15.299999999999999"></rect><rect shape-rendering="optimizeSpeed" fill="#000000" x="177.2" y="207.6" width="15.299999999999999" height="15.299999999999999"></rect><rect shape-rendering="optimizeSpeed" fill="#000000" x="207.6" y="207.6" width="15.299999999999999" height="15.299999999999999"></rect><rect shape-rendering="optimizeSpeed" fill="#000000" x="222.79999999999998" y="207.6" width="15.299999999999999" height="15.299999999999999"></rect><rect shape-rendering="optimizeSpeed" fill="#000000" x="238" y="207.6" width="15.299999999999999" height="15.299999999999999"></rect><rect shape-rendering="optimizeSpeed" fill="#000000" x="253.2" y="207.6" width="15.299999999999999" height="15.299999999999999"></rect><rect shape-rendering="optimizeSpeed" fill="#000000" x="314" y="207.6" width="15.299999999999999" height="15.299999999999999"></rect><rect shape-rendering="optimizeSpeed" fill="#000000" x="359.59999999999997" y="207.6" width="15.299999999999999" height="15.299999999999999"></rect><rect shape-rendering="optimizeSpeed" fill="#000000" x="10" y="222.79999999999998" width="15.299999999999999" height="15.299999999999999"></rect><rect shape-rendering="optimizeSpeed" fill="#000000" x="25.2" y="222.79999999999998" width="15.299999999999999" height="15.299999999999999"></rect><rect shape-rendering="optimizeSpeed" fill="#000000" x="70.8" y="222.79999999999998" width="15.299999999999999" height="15.299999999999999"></rect><rect shape-rendering="optimizeSpeed" fill="#000000" x="86" y="222.79999999999998" width="15.299999999999999" height="15.299999999999999"></rect><rect shape-rendering="optimizeSpeed" fill="#000000" x="101.19999999999999" y="222.79999999999998" width="15.299999999999999" height="15.299999999999999"></rect><rect shape-rendering="optimizeSpeed" fill="#000000" x="162" y="222.79999999999998" width="15.299999999999999" height="15.299999999999999"></rect><rect shape-rendering="optimizeSpeed" fill="#000000" x="177.2" y="222.79999999999998" width="15.299999999999999" height="15.299999999999999"></rect><rect shape-rendering="optimizeSpeed" fill="#000000" x="238" y="222.79999999999998" width="15.299999999999999" height="15.299999999999999"></rect><rect shape-rendering="optimizeSpeed" fill="#000000" x="268.4" y="222.79999999999998" width="15.299999999999999" height="15.299999999999999"></rect><rect shape-rendering="optimizeSpeed" fill="#000000" x="298.8" y="222.79999999999998" width="15.299999999999999" height="15.299999999999999"></rect><rect shape-rendering="optimizeSpeed" fill="#000000" x="314" y="222.79999999999998" width="15.299999999999999" height="15.299999999999999"></rect><rect shape-rendering="optimizeSpeed" fill="#000000" x="329.2" y="222.79999999999998" width="15.299999999999999" height="15.299999999999999"></rect><rect shape-rendering="optimizeSpeed" fill="#000000" x="344.4" y="222.79999999999998" width="15.299999999999999" height="15.299999999999999"></rect><rect shape-rendering="optimizeSpeed" fill="#000000" x="359.59999999999997" y="222.79999999999998" width="15.299999999999999" height="15.299999999999999"></rect><rect shape-rendering="optimizeSpeed" fill="#000000" x="374.79999999999995" y="222.79999999999998" width="15.299999999999999" height="15.299999999999999"></rect><rect shape-rendering="optimizeSpeed" fill="#000000" x="10" y="238" width="15.299999999999999" height="15.299999999999999"></rect><rect shape-rendering="optimizeSpeed" fill="#000000" x="55.599999999999994" y="238" width="15.299999999999999" height="15.299999999999999"></rect><rect shape-rendering="optimizeSpeed" fill="#000000" x="116.39999999999999" y="238" width="15.299999999999999" height="15.299999999999999"></rect><rect shape-rendering="optimizeSpeed" fill="#000000" x="131.6" y="238" width="15.299999999999999" height="15.299999999999999"></rect><rect shape-rendering="optimizeSpeed" fill="#000000" x="162" y="238" width="15.299999999999999" height="15.299999999999999"></rect><rect shape-rendering="optimizeSpeed" fill="#000000" x="177.2" y="238" width="15.299999999999999" height="15.299999999999999"></rect><rect shape-rendering="optimizeSpeed" fill="#000000" x="238" y="238" width="15.299999999999999" height="15.299999999999999"></rect><rect shape-rendering="optimizeSpeed" fill="#000000" x="268.4" y="238" width="15.299999999999999" height="15.299999999999999"></rect><rect shape-rendering="optimizeSpeed" fill="#000000" x="283.59999999999997" y="238" width="15.299999999999999" height="15.299999999999999"></rect><rect shape-rendering="optimizeSpeed" fill="#000000" x="298.8" y="238" width="15.299999999999999" height="15.299999999999999"></rect><rect shape-rendering="optimizeSpeed" fill="#000000" x="314" y="238" width="15.299999999999999" height="15.299999999999999"></rect><rect shape-rendering="optimizeSpeed" fill="#000000" x="344.4" y="238" width="15.299999999999999" height="15.299999999999999"></rect><rect shape-rendering="optimizeSpeed" fill="#000000" x="374.79999999999995" y="238" width="15.299999999999999" height="15.299999999999999"></rect><rect shape-rendering="optimizeSpeed" fill="#000000" x="10" y="253.2" width="15.299999999999999" height="15.299999999999999"></rect><rect shape-rendering="optimizeSpeed" fill="#000000" x="40.4" y="253.2" width="15.299999999999999" height="15.299999999999999"></rect><rect shape-rendering="optimizeSpeed" fill="#000000" x="55.599999999999994" y="253.2" width="15.299999999999999" height="15.299999999999999"></rect><rect shape-rendering="optimizeSpeed" fill="#000000" x="70.8" y="253.2" width="15.299999999999999" height="15.299999999999999"></rect><rect shape-rendering="optimizeSpeed" fill="#000000" x="86" y="253.2" width="15.299999999999999" height="15.299999999999999"></rect><rect shape-rendering="optimizeSpeed" fill="#000000" x="101.19999999999999" y="253.2" width="15.299999999999999" height="15.299999999999999"></rect><rect shape-rendering="optimizeSpeed" fill="#000000" x="146.79999999999998" y="253.2" width="15.299999999999999" height="15.299999999999999"></rect><rect shape-rendering="optimizeSpeed" fill="#000000" x="192.39999999999998" y="253.2" width="15.299999999999999" height="15.299999999999999"></rect><rect shape-rendering="optimizeSpeed" fill="#000000" x="253.2" y="253.2" width="15.299999999999999" height="15.299999999999999"></rect><rect shape-rendering="optimizeSpeed" fill="#000000" x="268.4" y="253.2" width="15.299999999999999" height="15.299999999999999"></rect><rect shape-rendering="optimizeSpeed" fill="#000000" x="283.59999999999997" y="253.2" width="15.299999999999999" height="15.299999999999999"></rect><rect shape-rendering="optimizeSpeed" fill="#000000" x="298.8" y="253.2" width="15.299999999999999" height="15.299999999999999"></rect><rect shape-rendering="optimizeSpeed" fill="#000000" x="314" y="253.2" width="15.299999999999999" height="15.299999999999999"></rect><rect shape-rendering="optimizeSpeed" fill="#000000" x="344.4" y="253.2" width="15.299999999999999" height="15.299999999999999"></rect><rect shape-rendering="optimizeSpeed" fill="#000000" x="359.59999999999997" y="253.2" width="15.299999999999999" height="15.299999999999999"></rect><rect shape-rendering="optimizeSpeed" fill="#000000" x="131.6" y="268.4" width="15.299999999999999" height="15.299999999999999"></rect><rect shape-rendering="optimizeSpeed" fill="#000000" x="177.2" y="268.4" width="15.299999999999999" height="15.299999999999999"></rect><rect shape-rendering="optimizeSpeed" fill="#000000" x="192.39999999999998" y="268.4" width="15.299999999999999" height="15.299999999999999"></rect><rect shape-rendering="optimizeSpeed" fill="#000000" x="222.79999999999998" y="268.4" width="15.299999999999999" height="15.299999999999999"></rect><rect shape-rendering="optimizeSpeed" fill="#000000" x="253.2" y="268.4" width="15.299999999999999" height="15.299999999999999"></rect><rect shape-rendering="optimizeSpeed" fill="#000000" x="314" y="268.4" width="15.299999999999999" height="15.299999999999999"></rect><rect shape-rendering="optimizeSpeed" fill="#000000" x="359.59999999999997" y="268.4" width="15.299999999999999" height="15.299999999999999"></rect><rect shape-rendering="optimizeSpeed" fill="#000000" x="10" y="283.59999999999997" width="15.299999999999999" height="15.299999999999999"></rect><rect shape-rendering="optimizeSpeed" fill="#000000" x="25.2" y="283.59999999999997" width="15.299999999999999" height="15.299999999999999"></rect><rect shape-rendering="optimizeSpeed" fill="#000000" x="40.4" y="283.59999999999997" width="15.299999999999999" height="15.299999999999999"></rect><rect shape-rendering="optimizeSpeed" fill="#000000" x="55.599999999999994" y="283.59999999999997" width="15.299999999999999" height="15.299999999999999"></rect><rect shape-rendering="optimizeSpeed" fill="#000000" x="70.8" y="283.59999999999997" width="15.299999999999999" height="15.299999999999999"></rect><rect shape-rendering="optimizeSpeed" fill="#000000" x="86" y="283.59999999999997" width="15.299999999999999" height="15.299999999999999"></rect><rect shape-rendering="optimizeSpeed" fill="#000000" x="101.19999999999999" y="283.59999999999997" width="15.299999999999999" height="15.299999999999999"></rect><rect shape-rendering="optimizeSpeed" fill="#000000" x="146.79999999999998" y="283.59999999999997" width="15.299999999999999" height="15.299999999999999"></rect><rect shape-rendering="optimizeSpeed" fill="#000000" x="162" y="283.59999999999997" width="15.299999999999999" height="15.299999999999999"></rect><rect shape-rendering="optimizeSpeed" fill="#000000" x="207.6" y="283.59999999999997" width="15.299999999999999" height="15.299999999999999"></rect><rect shape-rendering="optimizeSpeed" fill="#000000" x="222.79999999999998" y="283.59999999999997" width="15.299999999999999" height="15.299999999999999"></rect><rect shape-rendering="optimizeSpeed" fill="#000000" x="253.2" y="283.59999999999997" width="15.299999999999999" height="15.299999999999999"></rect><rect shape-rendering="optimizeSpeed" fill="#000000" x="283.59999999999997" y="283.59999999999997" width="15.299999999999999" height="15.299999999999999"></rect><rect shape-rendering="optimizeSpeed" fill="#000000" x="314" y="283.59999999999997" width="15.299999999999999" height="15.299999999999999"></rect><rect shape-rendering="optimizeSpeed" fill="#000000" x="329.2" y="283.59999999999997" width="15.299999999999999" height="15.299999999999999"></rect><rect shape-rendering="optimizeSpeed" fill="#000000" x="374.79999999999995" y="283.59999999999997" width="15.299999999999999" height="15.299999999999999"></rect><rect shape-rendering="optimizeSpeed" fill="#000000" x="10" y="298.8" width="15.299999999999999" height="15.299999999999999"></rect><rect shape-rendering="optimizeSpeed" fill="#000000" x="101.19999999999999" y="298.8" width="15.299999999999999" height="15.299999999999999"></rect><rect shape-rendering="optimizeSpeed" fill="#000000" x="131.6" y="298.8" width="15.299999999999999" height="15.299999999999999"></rect><rect shape-rendering="optimizeSpeed" fill="#000000" x="146.79999999999998" y="298.8" width="15.299999999999999" height="15.299999999999999"></rect><rect shape-rendering="optimizeSpeed" fill="#000000" x="192.39999999999998" y="298.8" width="15.299999999999999" height="15.299999999999999"></rect><rect shape-rendering="optimizeSpeed" fill="#000000" x="207.6" y="298.8" width="15.299999999999999" height="15.299999999999999"></rect><rect shape-rendering="optimizeSpeed" fill="#000000" x="238" y="298.8" width="15.299999999999999" height="15.299999999999999"></rect><rect shape-rendering="optimizeSpeed" fill="#000000" x="253.2" y="298.8" width="15.299999999999999" height="15.299999999999999"></rect><rect shape-rendering="optimizeSpeed" fill="#000000" x="314" y="298.8" width="15.299999999999999" height="15.299999999999999"></rect><rect shape-rendering="optimizeSpeed" fill="#000000" x="359.59999999999997" y="298.8" width="15.299999999999999" height="15.299999999999999"></rect><rect shape-rendering="optimizeSpeed" fill="#000000" x="10" y="314" width="15.299999999999999" height="15.299999999999999"></rect><rect shape-rendering="optimizeSpeed" fill="#000000" x="40.4" y="314" width="15.299999999999999" height="15.299999999999999"></rect><rect shape-rendering="optimizeSpeed" fill="#000000" x="55.599999999999994" y="314" width="15.299999999999999" height="15.299999999999999"></rect><rect shape-rendering="optimizeSpeed" fill="#000000" x="70.8" y="314" width="15.299999999999999" height="15.299999999999999"></rect><rect shape-rendering="optimizeSpeed" fill="#000000" x="101.19999999999999" y="314" width="15.299999999999999" height="15.299999999999999"></rect><rect shape-rendering="optimizeSpeed" fill="#000000" x="131.6" y="314" width="15.299999999999999" height="15.299999999999999"></rect><rect shape-rendering="optimizeSpeed" fill="#000000" x="192.39999999999998" y="314" width="15.299999999999999" height="15.299999999999999"></rect><rect shape-rendering="optimizeSpeed" fill="#000000" x="207.6" y="314" width="15.299999999999999" height="15.299999999999999"></rect><rect shape-rendering="optimizeSpeed" fill="#000000" x="238" y="314" width="15.299999999999999" height="15.299999999999999"></rect><rect shape-rendering="optimizeSpeed" fill="#000000" x="253.2" y="314" width="15.299999999999999" height="15.299999999999999"></rect><rect shape-rendering="optimizeSpeed" fill="#000000" x="268.4" y="314" width="15.299999999999999" height="15.299999999999999"></rect><rect shape-rendering="optimizeSpeed" fill="#000000" x="283.59999999999997" y="314" width="15.299999999999999" height="15.299999999999999"></rect><rect shape-rendering="optimizeSpeed" fill="#000000" x="298.8" y="314" width="15.299999999999999" height="15.299999999999999"></rect><rect shape-rendering="optimizeSpeed" fill="#000000" x="314" y="314" width="15.299999999999999" height="15.299999999999999"></rect><rect shape-rendering="optimizeSpeed" fill="#000000" x="329.2" y="314" width="15.299999999999999" height="15.299999999999999"></rect><rect shape-rendering="optimizeSpeed" fill="#000000" x="374.79999999999995" y="314" width="15.299999999999999" height="15.299999999999999"></rect><rect shape-rendering="optimizeSpeed" fill="#000000" x="10" y="329.2" width="15.299999999999999" height="15.299999999999999"></rect><rect shape-rendering="optimizeSpeed" fill="#000000" x="40.4" y="329.2" width="15.299999999999999" height="15.299999999999999"></rect><rect shape-rendering="optimizeSpeed" fill="#000000" x="55.599999999999994" y="329.2" width="15.299999999999999" height="15.299999999999999"></rect><rect shape-rendering="optimizeSpeed" fill="#000000" x="70.8" y="329.2" width="15.299999999999999" height="15.299999999999999"></rect><rect shape-rendering="optimizeSpeed" fill="#000000" x="101.19999999999999" y="329.2" width="15.299999999999999" height="15.299999999999999"></rect><rect shape-rendering="optimizeSpeed" fill="#000000" x="131.6" y="329.2" width="15.299999999999999" height="15.299999999999999"></rect><rect shape-rendering="optimizeSpeed" fill="#000000" x="146.79999999999998" y="329.2" width="15.299999999999999" height="15.299999999999999"></rect><rect shape-rendering="optimizeSpeed" fill="#000000" x="162" y="329.2" width="15.299999999999999" height="15.299999999999999"></rect><rect shape-rendering="optimizeSpeed" fill="#000000" x="177.2" y="329.2" width="15.299999999999999" height="15.299999999999999"></rect><rect shape-rendering="optimizeSpeed" fill="#000000" x="207.6" y="329.2" width="15.299999999999999" height="15.299999999999999"></rect><rect shape-rendering="optimizeSpeed" fill="#000000" x="238" y="329.2" width="15.299999999999999" height="15.299999999999999"></rect><rect shape-rendering="optimizeSpeed" fill="#000000" x="268.4" y="329.2" width="15.299999999999999" height="15.299999999999999"></rect><rect shape-rendering="optimizeSpeed" fill="#000000" x="283.59999999999997" y="329.2" width="15.299999999999999" height="15.299999999999999"></rect><rect shape-rendering="optimizeSpeed" fill="#000000" x="329.2" y="329.2" width="15.299999999999999" height="15.299999999999999"></rect><rect shape-rendering="optimizeSpeed" fill="#000000" x="359.59999999999997" y="329.2" width="15.299999999999999" height="15.299999999999999"></rect><rect shape-rendering="optimizeSpeed" fill="#000000" x="374.79999999999995" y="329.2" width="15.299999999999999" height="15.299999999999999"></rect><rect shape-rendering="optimizeSpeed" fill="#000000" x="10" y="344.4" width="15.299999999999999" height="15.299999999999999"></rect><rect shape-rendering="optimizeSpeed" fill="#000000" x="40.4" y="344.4" width="15.299999999999999" height="15.299999999999999"></rect><rect shape-rendering="optimizeSpeed" fill="#000000" x="55.599999999999994" y="344.4" width="15.299999999999999" height="15.299999999999999"></rect><rect shape-rendering="optimizeSpeed" fill="#000000" x="70.8" y="344.4" width="15.299999999999999" height="15.299999999999999"></rect><rect shape-rendering="optimizeSpeed" fill="#000000" x="101.19999999999999" y="344.4" width="15.299999999999999" height="15.299999999999999"></rect><rect shape-rendering="optimizeSpeed" fill="#000000" x="162" y="344.4" width="15.299999999999999" height="15.299999999999999"></rect><rect shape-rendering="optimizeSpeed" fill="#000000" x="222.79999999999998" y="344.4" width="15.299999999999999" height="15.299999999999999"></rect><rect shape-rendering="optimizeSpeed" fill="#000000" x="268.4" y="344.4" width="15.299999999999999" height="15.299999999999999"></rect><rect shape-rendering="optimizeSpeed" fill="#000000" x="298.8" y="344.4" width="15.299999999999999" height="15.299999999999999"></rect><rect shape-rendering="optimizeSpeed" fill="#000000" x="314" y="344.4" width="15.299999999999999" height="15.299999999999999"></rect><rect shape-rendering="optimizeSpeed" fill="#000000" x="344.4" y="344.4" width="15.299999999999999" height="15.299999999999999"></rect><rect shape-rendering="optimizeSpeed" fill="#000000" x="359.59999999999997" y="344.4" width="15.299999999999999" height="15.299999999999999"></rect><rect shape-rendering="optimizeSpeed" fill="#000000" x="374.79999999999995" y="344.4" width="15.299999999999999" height="15.299999999999999"></rect><rect shape-rendering="optimizeSpeed" fill="#000000" x="10" y="359.59999999999997" width="15.299999999999999" height="15.299999999999999"></rect><rect shape-rendering="optimizeSpeed" fill="#000000" x="101.19999999999999" y="359.59999999999997" width="15.299999999999999" height="15.299999999999999"></rect><rect shape-rendering="optimizeSpeed" fill="#000000" x="131.6" y="359.59999999999997" width="15.299999999999999" height="15.299999999999999"></rect><rect shape-rendering="optimizeSpeed" fill="#000000" x="146.79999999999998" y="359.59999999999997" width="15.299999999999999" height="15.299999999999999"></rect><rect shape-rendering="optimizeSpeed" fill="#000000" x="192.39999999999998" y="359.59999999999997" width="15.299999999999999" height="15.299999999999999"></rect><rect shape-rendering="optimizeSpeed" fill="#000000" x="207.6" y="359.59999999999997" width="15.299999999999999" height="15.299999999999999"></rect><rect shape-rendering="optimizeSpeed" fill="#000000" x="222.79999999999998" y="359.59999999999997" width="15.299999999999999" height="15.299999999999999"></rect><rect shape-rendering="optimizeSpeed" fill="#000000" x="238" y="359.59999999999997" width="15.299999999999999" height="15.299999999999999"></rect><rect shape-rendering="optimizeSpeed" fill="#000000" x="283.59999999999997" y="359.59999999999997" width="15.299999999999999" height="15.299999999999999"></rect><rect shape-rendering="optimizeSpeed" fill="#000000" x="298.8" y="359.59999999999997" width="15.299999999999999" height="15.299999999999999"></rect><rect shape-rendering="optimizeSpeed" fill="#000000" x="314" y="359.59999999999997" width="15.299999999999999" height="15.299999999999999"></rect><rect shape-rendering="optimizeSpeed" fill="#000000" x="344.4" y="359.59999999999997" width="15.299999999999999" height="15.299999999999999"></rect><rect shape-rendering="optimizeSpeed" fill="#000000" x="359.59999999999997" y="359.59999999999997" width="15.299999999999999" height="15.299999999999999"></rect><rect shape-rendering="optimizeSpeed" fill="#000000" x="374.79999999999995" y="359.59999999999997" width="15.299999999999999" height="15.299999999999999"></rect><rect shape-rendering="optimizeSpeed" fill="#000000" x="10" y="374.79999999999995" width="15.299999999999999" height="15.299999999999999"></rect><rect shape-rendering="optimizeSpeed" fill="#000000" x="25.2" y="374.79999999999995" width="15.299999999999999" height="15.299999999999999"></rect><rect shape-rendering="optimizeSpeed" fill="#000000" x="40.4" y="374.79999999999995" width="15.299999999999999" height="15.299999999999999"></rect><rect shape-rendering="optimizeSpeed" fill="#000000" x="55.599999999999994" y="374.79999999999995" width="15.299999999999999" height="15.299999999999999"></rect><rect shape-rendering="optimizeSpeed" fill="#000000" x="70.8" y="374.79999999999995" width="15.299999999999999" height="15.299999999999999"></rect><rect shape-rendering="optimizeSpeed" fill="#000000" x="86" y="374.79999999999995" width="15.299999999999999" height="15.299999999999999"></rect><rect shape-rendering="optimizeSpeed" fill="#000000" x="101.19999999999999" y="374.79999999999995" width="15.299999999999999" height="15.299999999999999"></rect><rect shape-rendering="optimizeSpeed" fill="#000000" x="146.79999999999998" y="374.79999999999995" width="15.299999999999999" height="15.299999999999999"></rect><rect shape-rendering="optimizeSpeed" fill="#000000" x="192.39999999999998" y="374.79999999999995" width="15.299999999999999" height="15.299999999999999"></rect><rect shape-rendering="optimizeSpeed" fill="#000000" x="253.2" y="374.79999999999995" width="15.299999999999999" height="15.299999999999999"></rect><rect shape-rendering="optimizeSpeed" fill="#000000" x="283.59999999999997" y="374.79999999999995" width="15.299999999999999" height="15.299999999999999"></rect><rect shape-rendering="optimizeSpeed" fill="#000000" x="329.2" y="374.79999999999995" width="15.299999999999999" height="15.299999999999999"></rect><rect shape-rendering="optimizeSpeed" fill="#000000" x="374.79999999999995" y="374.79999999999995" width="15.299999999999999" height="15.299999999999999"></rect></svg></g></svg>