<svg width="160" height="160" viewBox="0 0 160 160" fill="none" xmlns="http://www.w3.org/2000/svg">
<circle cx="80" cy="80" r="80" fill="#015DBC"/>
<path d="M59.6748 94.53H65.5148" stroke="white" stroke-width="3" stroke-miterlimit="10"/>
<path d="M49.6047 94.53H55.4447" stroke="white" stroke-width="3" stroke-miterlimit="10"/>
<path d="M97.2547 83.35L91.0146 89.91" stroke="white" stroke-width="3" stroke-linecap="round" stroke-linejoin="round"/>
<path d="M103.585 95.87L99.7549 83.44" stroke="white" stroke-width="3" stroke-linecap="round" stroke-linejoin="round"/>
<path d="M75.7246 95.87L82.6746 84.27" stroke="white" stroke-width="3" stroke-linecap="round" stroke-linejoin="round"/>
<path d="M83.4647 95.87C83.4667 97.3933 83.0168 98.883 82.1719 100.151C81.327 101.418 80.1251 102.407 78.7183 102.991C77.3115 103.575 75.763 103.729 74.2686 103.433C72.7743 103.137 71.4014 102.405 70.3235 101.328C69.2457 100.252 68.5113 98.8798 68.2134 97.3859C67.9155 95.8919 68.0674 94.3432 68.6499 92.9356C69.2324 91.5281 70.2193 90.3249 71.4858 89.4784C72.7522 88.6318 74.2414 88.18 75.7647 88.18C77.8051 88.18 79.7621 88.9899 81.2059 90.4317C82.6496 91.8736 83.462 93.8296 83.4647 95.87Z" stroke="white" stroke-width="3" stroke-linecap="round" stroke-linejoin="round"/>
<path d="M111.275 95.87C111.275 97.3909 110.824 98.8777 109.979 100.142C109.134 101.407 107.933 102.393 106.528 102.975C105.122 103.557 103.576 103.709 102.085 103.412C100.593 103.116 99.2226 102.383 98.1471 101.308C97.0717 100.232 96.3393 98.8619 96.0425 97.3702C95.7458 95.8785 95.8981 94.3323 96.4801 92.9272C97.0622 91.522 98.0478 90.321 99.3124 89.476C100.577 88.631 102.064 88.18 103.585 88.18C105.624 88.18 107.58 88.9902 109.022 90.4323C110.465 91.8745 111.275 93.8305 111.275 95.87Z" stroke="white" stroke-width="3" stroke-linecap="round" stroke-linejoin="round"/>
<path d="M78.8848 81.42H81.1348" stroke="white" stroke-width="3" stroke-linecap="round" stroke-linejoin="round"/>
<path d="M88.2947 98.6599C87.7005 98.6391 87.1385 98.3849 86.7305 97.9525C86.3224 97.5201 86.1012 96.9443 86.1147 96.3499L85.7247 87.5299C85.1147 86.7899 80.8847 81.6699 79.9447 79.3499C79.6422 78.5777 79.6006 77.7278 79.8263 76.9297C80.052 76.1316 80.5326 75.4293 81.1947 74.9299C83.3647 73.1499 89.4547 69.9299 93.8847 69.9299C94.7365 69.8991 95.5784 70.121 96.3045 70.5677C97.0305 71.0143 97.6081 71.6657 97.9647 72.4399C98.5147 73.8399 99.8847 78.0499 100.215 79.0599L106.425 79.1799C106.667 79.1797 106.906 79.2285 107.129 79.3234C107.351 79.4184 107.552 79.5574 107.72 79.7322C107.887 79.907 108.017 80.1139 108.102 80.3404C108.187 80.5668 108.226 80.8082 108.215 81.0499C108.239 81.4988 108.1 81.9412 107.822 82.2946C107.544 82.6479 107.147 82.888 106.705 82.9699L98.1947 83.5599C97.7734 83.5762 97.3586 83.4526 97.0149 83.2084C96.6712 82.9642 96.418 82.6131 96.2947 82.2099L94.2047 77.6599L87.3947 79.5299L90.6447 85.7599C90.9891 86.3691 91.1619 87.0603 91.1447 87.7599C91.0447 89.7599 90.7147 94.6599 90.5047 96.4099C90.3747 97.4299 90.0047 98.6599 88.2947 98.6599Z" stroke="white" stroke-width="3" stroke-linejoin="round"/>
<path d="M105.125 74.54C104.211 74.54 103.318 74.269 102.558 73.7614C101.798 73.2537 101.206 72.5322 100.857 71.688C100.507 70.8438 100.415 69.9149 100.594 69.0187C100.772 68.1225 101.212 67.2993 101.858 66.6532C102.504 66.007 103.327 65.567 104.224 65.3888C105.12 65.2105 106.049 65.302 106.893 65.6517C107.737 66.0013 108.459 66.5935 108.966 67.3533C109.474 68.113 109.745 69.0062 109.745 69.92C109.745 70.5267 109.625 71.1275 109.393 71.688C109.161 72.2485 108.821 72.7578 108.392 73.1868C107.963 73.6158 107.453 73.9561 106.893 74.1883C106.332 74.4205 105.732 74.54 105.125 74.54Z" stroke="white" stroke-width="3" stroke-linejoin="round"/>
<path d="M49.9849 82.58H74.2549" stroke="white" stroke-width="3" stroke-miterlimit="10"/>
<path d="M48.0947 108.76H113.535" stroke="white" stroke-width="3" stroke-miterlimit="10"/>
<path d="M65.3848 82.66C65.3848 82.66 62.4648 74.02 68.7148 63.12L66.9048 61.21C65.0244 63.3273 63.4276 65.6804 62.1548 68.21C60.6596 65.2133 58.8601 62.3784 56.7848 59.75L54.6948 61.32C58.1648 66.46 59.4248 70.63 59.6948 72.23L58.2148 71.66L57.5348 74.06C58.1648 74.43 59.1948 75.13 59.7648 75.56C59.9748 78.08 58.5548 82.56 58.5548 82.56" stroke="white" stroke-width="3" stroke-linejoin="round"/>
<path d="M56.5347 77.48C49.4147 78.25 45.5347 72.92 46.0447 68.21C46.1314 67.0348 46.4679 65.8916 47.0319 64.8569C47.5958 63.8222 48.374 62.9198 49.3147 62.21C48.999 61.6513 48.8075 61.0311 48.7535 60.3917C48.6994 59.7522 48.7839 59.1087 49.0013 58.5049C49.2187 57.9011 49.5638 57.3514 50.0131 56.8932C50.4624 56.435 51.0053 56.0792 51.6047 55.85C50.7047 52.77 52.4947 48 58.4447 48C59.749 48.0482 61.0126 48.4669 62.0876 49.2071C63.1626 49.9474 64.0045 50.9786 64.5147 52.18C66.2047 51.31 70.9947 50.7 73.6947 53.86C76.3947 57.02 75.3947 60.43 73.3047 62.86C75.7347 64.27 77.6947 66.86 77.3647 69.53C76.6147 75.48 71.0447 76.53 68.0347 75.94" stroke="white" stroke-width="3" stroke-linecap="round" stroke-linejoin="round"/>
</svg>
