<svg width="160" height="160" viewBox="0 0 160 160" fill="none" xmlns="http://www.w3.org/2000/svg">
<circle cx="80" cy="80" r="80" fill="#015DBC"/>
<path d="M40 93.3333C42.1817 93.3321 44.3404 92.8883 46.3457 92.0289C48.351 91.1695 50.1611 89.9123 51.6667 88.3333C53.1718 89.9126 54.982 91.1699 56.9874 92.0289C58.9928 92.8879 61.1517 93.3309 63.3333 93.3309C65.515 93.3309 67.6739 92.8879 69.6793 92.0289C71.6847 91.1699 73.4948 89.9126 75 88.3333C76.5052 89.9126 78.3153 91.1699 80.3207 92.0289C82.3261 92.8879 84.485 93.3309 86.6667 93.3309C88.8483 93.3309 91.0072 92.8879 93.0126 92.0289C95.0181 91.1699 96.8282 89.9126 98.3333 88.3333C100.965 91.1031 104.498 92.8443 108.298 93.2444C112.098 93.6446 115.916 92.6775 119.067 90.5167" stroke="white" stroke-width="3" stroke-linejoin="round"/>
<path d="M46.4001 92.3667L42.4334 87.6C41.9365 87.0003 41.6652 86.2455 41.6668 85.4667V80L81.3334 78.1833L87.3834 73.0833L118.333 71.6667C118.333 71.6667 109.367 89.1 104.483 92.35" stroke="white" stroke-width="3" stroke-linejoin="round"/>
<path d="M76.9336 66.9L94.0669 66.1167" stroke="white" stroke-width="3" stroke-linejoin="round"/>
<path d="M49.1499 71.5L61.7999 70.9333" stroke="white" stroke-width="3" stroke-linejoin="round"/>
<path d="M70.9831 60.5L54.3164 79.4166" stroke="white" stroke-width="3" stroke-linejoin="round"/>
<path d="M102.933 72.3667L87.9332 61.8333C86.1357 60.5596 83.968 59.9152 81.7666 60L58.3333 61.0833" stroke="white" stroke-width="3" stroke-linejoin="round"/>
<path d="M103.333 78.85L106.667 78.7" stroke="white" stroke-width="3" stroke-linejoin="round"/>
<path d="M96.6667 79.15L100 79" stroke="white" stroke-width="3" stroke-linejoin="round"/>
<path d="M90.0166 79.45L93.3499 79.3" stroke="white" stroke-width="3" stroke-linejoin="round"/>
</svg>
