<svg width="160" height="160" viewBox="0 0 160 160" fill="none" xmlns="http://www.w3.org/2000/svg">
<circle cx="80" cy="80" r="80" fill="#015DBC"/>
<path d="M68.4759 63.2556L57.7407 81.7408H78.4074" stroke="white" stroke-width="3" stroke-miterlimit="10"/>
<path d="M78.4074 86.3333V46.1482L66.524 66.6082" stroke="white" stroke-width="3" stroke-linejoin="round"/>
<path d="M78.4073 57.6296L92.1851 81.7408H78.4073" stroke="white" stroke-width="3" stroke-miterlimit="10"/>
<path d="M52.7349 96.7585C54.6006 98.2934 56.9725 99.076 59.3854 98.9528C61.7982 98.8296 64.0781 97.8096 65.7778 96.0926C66.6805 97.0007 67.7539 97.7214 68.9362 98.2132C70.1184 98.705 71.3863 98.9581 72.6667 98.9581C73.9472 98.9581 75.215 98.705 76.3973 98.2132C77.5795 97.7214 78.6529 97.0007 79.5556 96.0926C80.4583 97.0007 81.5317 97.7214 82.7139 98.2132C83.8962 98.705 85.164 98.9581 86.4445 98.9581C87.725 98.9581 88.9928 98.705 90.175 98.2132C91.3573 97.7214 92.4307 97.0007 93.3334 96.0926C95.0331 97.8096 97.313 98.8296 99.7258 98.9528C102.139 99.076 104.511 98.2934 106.376 96.7585" stroke="white" stroke-width="3" stroke-linejoin="round"/>
<path d="M69.2222 90.9259L71.5185 86.3333H85.2962L87.6155 90.9259" stroke="white" stroke-width="3" stroke-miterlimit="10"/>
<path d="M56.7189 98.7219L60.6111 90.9259H102.519L96.33 98.1478" stroke="white" stroke-width="3" stroke-linejoin="round"/>
</svg>
