<svg width="160" height="160" viewBox="0 0 160 160" fill="none" xmlns="http://www.w3.org/2000/svg">
<circle cx="80" cy="80" r="80" fill="#015DBC"/>
<path d="M115.082 102.04L104.212 85.84C104.045 85.546 103.794 85.3088 103.491 85.1591C103.188 85.0094 102.847 84.9539 102.512 85L60.6421 106.48" stroke="white" stroke-width="3" stroke-linecap="round" stroke-linejoin="round"/>
<path d="M63.6023 77.8L64.1523 86.3C64.1523 86.3 62.9423 93.2 62.6623 94.67C62.4869 95.2683 62.5453 95.9109 62.8256 96.4678C63.1059 97.0247 63.5873 97.4544 64.1723 97.67C64.6951 97.8295 65.2591 97.7839 65.7495 97.5424C66.2399 97.3009 66.6199 96.8817 66.8123 96.37C67.4123 95 69.7423 87.04 69.7423 87.04L69.8923 80.31" stroke="white" stroke-width="3" stroke-linejoin="round"/>
<path d="M68.3821 59.62C64.1021 63.35 62.7821 71.78 62.6321 74.37C62.5621 75.55 62.4221 77.56 64.7921 78.56C67.7421 79.79 75.9221 82.04 75.9221 82.04L77.2321 90.21C77.2776 90.5391 77.3913 90.8551 77.5659 91.1379C77.7404 91.4206 77.972 91.6638 78.2458 91.852C78.5197 92.0402 78.8297 92.1693 79.1562 92.2309C79.4827 92.2925 79.8185 92.2854 80.1421 92.21C81.7921 92.04 82.4521 90.62 82.3421 89.09C82.1521 86.49 81.4821 79.92 81.3421 78.94C81.3632 78.5712 81.2897 78.2031 81.1287 77.8706C80.9677 77.5381 80.7245 77.2522 80.4221 77.04C78.3321 75.9 71.7121 73.36 71.7121 73.36L74.4321 64.88L81.3121 65.4C81.8495 65.4483 82.3913 65.4009 82.9121 65.26L89.5321 62.91C91.1221 62.45 91.9421 61.41 91.6221 60.13C91.3021 58.85 90.0521 58.13 88.4621 58.62L82.5221 60.04L73.7421 58.58C72.2421 58.31 69.9221 58.32 68.3821 59.62Z" stroke="white" stroke-width="3" stroke-linejoin="round"/>
<path d="M77.4121 55.64C78.4647 55.636 79.4925 55.3199 80.3654 54.7316C81.2382 54.1433 81.917 53.3092 82.3156 52.335C82.7143 51.3608 82.8151 50.2903 82.6051 49.2588C82.3951 48.2274 81.8839 47.2814 81.1361 46.5406C80.3883 45.7998 79.4375 45.2974 78.4041 45.0972C77.3707 44.8969 76.3012 45.0077 75.3308 45.4156C74.3604 45.8234 73.5328 46.5099 72.9527 47.3883C72.3726 48.2667 72.0662 49.2974 72.0721 50.35C72.0827 51.7584 72.6503 53.1053 73.6508 54.0966C74.6514 55.0878 76.0037 55.6427 77.4121 55.64Z" stroke="white" stroke-width="3" stroke-linejoin="round"/>
<path d="M66.4123 61.93C67.7323 59.84 67.5523 58.18 64.7823 57.26C63.9238 56.9245 62.9772 56.888 62.0954 57.1565C61.2136 57.4251 60.4481 57.9829 59.9223 58.74C57.8486 61.4513 56.2493 64.4944 55.1923 67.74C54.5623 69.66 55.4723 71.37 58.0423 72.63C60.2523 73.72 62.5323 73.23 63.0423 71.38" stroke="white" stroke-width="3" stroke-linejoin="round"/>
<path d="M89.5322 62.92L93.3222 83.48" stroke="white" stroke-width="3" stroke-linecap="round" stroke-linejoin="round"/>
<path d="M88.4021 56.92L88.7221 58.56" stroke="white" stroke-width="3" stroke-linecap="round" stroke-linejoin="round"/>
<path d="M102.772 102.07L101.112 96.91" stroke="white" stroke-width="3" stroke-linecap="round" stroke-linejoin="round"/>
<path d="M75.1721 106.48L84.9921 99.85" stroke="white" stroke-width="3" stroke-linecap="round" stroke-linejoin="round"/>
</svg>
