<svg width="100" height="88" viewBox="0 0 100 88" fill="none" xmlns="http://www.w3.org/2000/svg">
<path d="M70.9691 72.798H77.4887C77.593 72.9414 77.4887 73.0066 77.3975 73.0718C76.2799 74.3131 75.0914 75.4886 73.8378 76.5924C68.8422 80.9885 62.9253 84.2098 56.5217 86.0197C54.5018 86.5918 52.4456 87.0274 50.3672 87.3236C47.9435 87.6517 45.4968 87.7782 43.0522 87.7018C41.4948 87.6605 39.9409 87.5343 38.3972 87.3236C35.1016 86.8854 31.8653 86.0807 28.7482 84.9244C21.43 82.2434 14.9589 77.6598 10.0015 71.6458C5.0441 65.6318 1.77966 58.4049 0.54446 50.7096C-0.382213 44.9122 -0.123948 38.9872 1.30365 33.2925C2.73125 27.5978 5.29855 22.2516 8.85043 17.577C12.3707 12.9249 16.7762 9.01502 21.8135 6.0723C26.8508 3.12959 32.4204 1.21219 38.2016 0.430451C40.9217 0.0438675 43.6723 -0.082751 46.4163 0.0523135C52.3166 0.308048 58.1067 1.73698 63.4485 4.25562C68.7902 6.77427 73.5766 10.3321 77.5278 14.7214C81.6454 19.2657 84.7558 24.629 86.6553 30.4597C86.7503 30.6355 86.7953 30.8339 86.7857 31.0334C86.3684 31.0986 82.3915 31.0986 81.8699 31.0334C81.7989 30.8945 81.7379 30.7507 81.6874 30.6031C79.2908 24.1331 75.2444 18.402 69.9494 13.9785C64.6544 9.5549 58.2948 6.59258 51.5016 5.38534C49.9996 5.12425 48.485 4.94146 46.964 4.8377C37.2054 4.19266 27.5496 7.15295 19.8294 13.1567C12.1167 19.1235 6.92762 27.7706 5.29073 37.3835C4.81122 40.1639 4.64937 42.9899 4.80827 45.8068C5.15184 53.3484 7.74492 60.6144 12.2537 66.6695C17.7008 74.1587 25.6147 79.4869 34.6028 81.7168C36.2526 82.1388 37.9302 82.4438 39.6229 82.6295C41.6217 82.866 43.6353 82.9532 45.647 82.8903C54.3495 82.6395 62.7267 79.5278 69.4827 74.0367C69.9912 73.6325 70.4736 73.2022 70.9691 72.798Z" fill="#C9C222"/>
<path d="M49.2719 61.7929V52.9262C49.2719 50.0185 49.2719 47.0977 49.2719 44.1769C48.9413 44.6756 48.6576 45.2038 48.4243 45.7547C48.1766 46.3023 47.9549 46.85 47.7202 47.3976C47.4855 47.9453 47.2638 48.4799 47.0291 49.0275L46.3511 50.6053L45.66 52.2482L44.9559 53.8781L44.2648 55.508H39.5055L39.2447 54.9343L34.8636 44.6333L34.6419 44.1639C34.4985 44.1639 34.5376 44.2682 34.5376 44.3334C34.5376 44.3986 34.5376 44.6463 34.5376 44.8159V61.1409C34.5376 61.3495 34.5376 61.5712 34.5376 61.7538C34.3861 61.8485 34.2056 61.8856 34.0291 61.8581C30.7432 61.8581 28.37 61.8581 28.005 61.7798C27.9974 61.7323 27.9974 61.6839 28.005 61.6364V35.0756C27.9966 35.015 27.9966 34.9536 28.005 34.893C28.0874 34.8858 28.1703 34.8858 28.2527 34.893H35.8415H35.998C36.1378 35.0335 36.237 35.2092 36.2848 35.4016C38.0234 39.209 39.7359 43.0251 41.4223 46.85L41.9438 48.0235L42.1134 48.3104C44.1344 43.8118 46.1033 39.3524 48.0853 34.9452H48.1766H56.0914C56.0914 34.9452 56.0914 34.9452 56.1566 34.9452C56.2218 34.9452 56.1566 35.0756 56.1566 35.1669C56.1566 36.6924 56.1566 61.3235 56.1566 61.7929H55.9088C54.8266 61.9102 49.7282 61.8711 49.2719 61.7929Z" fill="#2C4B6B"/>
<path d="M87.542 56.5772C88.1939 56.5772 88.7807 56.5772 89.3805 56.5772H98.1559C98.7426 56.5772 99.3294 56.5772 99.9292 56.5772C99.9396 56.6769 99.9396 56.7774 99.9292 56.8771C99.9292 57.8812 99.9292 61.3235 99.9292 61.7407H99.6423C99.5512 61.7473 99.4597 61.7473 99.3685 61.7407H81.1136C80.9259 61.7924 80.7277 61.7924 80.5399 61.7407C80.5399 52.9089 80.5399 44.0726 80.5399 35.2321C80.5336 35.1627 80.5336 35.0928 80.5399 35.0234C80.5399 35.0234 80.5399 35.0234 80.5399 34.9583H87.2681C87.2681 34.9583 87.2681 34.9583 87.4116 34.9583C87.555 34.9583 87.542 35.1669 87.542 35.1669V55.8992C87.542 56.1078 87.542 56.3164 87.542 56.5772Z" fill="#2C4B6B"/>
<path d="M68.5829 34.8669H76.5108C76.589 35.0365 76.5108 35.1147 76.3804 35.206L73.7725 38.2571L66.5097 46.9021L66.1576 47.3454L66.4184 47.7497C69.0958 51.2268 71.7645 54.7039 74.4245 58.181L76.8368 61.3495C76.928 61.4539 77.0063 61.5842 77.1106 61.7277L76.8368 61.8059H68.8046C68.7417 61.808 68.6792 61.7948 68.6225 61.7676C68.5657 61.7404 68.5164 61.6998 68.4786 61.6494L68.2178 61.2974L61.0984 51.7527L59.0383 49.0014C58.9209 48.845 58.7775 48.7015 58.6601 48.5451L58.2429 47.9974C58.327 47.7886 58.451 47.5982 58.608 47.4367L66.0533 38.0094L68.257 35.219C68.3613 35.1668 68.4786 34.9973 68.5829 34.8669Z" fill="#2C4B6B"/>
<path d="M68.2831 64.6746H70.3302V65.483H68.2831V64.6746ZM69.8087 69.2253C69.6621 69.2374 69.5147 69.2168 69.3772 69.1649C69.2396 69.1131 69.1153 69.0312 69.0133 68.9254C68.8253 68.6645 68.7331 68.3466 68.7525 68.0257V63.3576H69.6391V68.0387C69.6149 68.1195 69.6149 68.2056 69.6391 68.2864C69.6621 68.3162 69.6918 68.34 69.7258 68.3559C69.7599 68.3718 69.7972 68.3793 69.8347 68.3777H70.265V69.2253H69.8087ZM73.4075 69.2253C73.036 69.2331 72.6685 69.1479 72.3383 68.9775C72.0396 68.8318 71.8002 68.5878 71.6602 68.2864C71.4947 67.9456 71.4142 67.5698 71.4255 67.1911V66.6826C71.4117 66.2883 71.4874 65.896 71.6472 65.5352C71.78 65.2278 72.0087 64.9717 72.2991 64.805C72.6137 64.6305 72.9698 64.5448 73.3292 64.5572C73.6737 64.544 74.0129 64.6448 74.2941 64.8441C74.5828 65.0435 74.798 65.3321 74.907 65.6656C75.0654 66.0815 75.1407 66.5245 75.1287 66.9695V67.2694H72.0644V66.5522H74.2811C74.2703 66.2437 74.1707 65.9449 73.9942 65.6916C73.9147 65.593 73.813 65.5145 73.6975 65.4624C73.582 65.4103 73.4558 65.3861 73.3292 65.3917C73.1825 65.382 73.0355 65.4063 72.8998 65.4628C72.764 65.5194 72.6433 65.6066 72.5469 65.7177C72.3485 65.9889 72.2515 66.3212 72.2731 66.6565V67.2303C72.2606 67.3856 72.2796 67.5419 72.3289 67.6898C72.3782 67.8376 72.4568 67.974 72.5599 68.0909C72.6722 68.1983 72.8054 68.2815 72.9512 68.3353C73.097 68.3892 73.2523 68.4125 73.4075 68.4038C73.592 68.4029 73.7742 68.3629 73.9421 68.2864C74.1213 68.2196 74.2853 68.1177 74.4245 67.9865L75.0113 68.5733C74.7877 68.7783 74.5323 68.9456 74.255 69.0688C73.9874 69.1852 73.6993 69.2472 73.4075 69.2513V69.2253ZM77.241 67.9213C77.2371 68.0086 77.2598 68.095 77.3062 68.1691C77.3311 68.1999 77.3631 68.2242 77.3994 68.2401C77.4357 68.256 77.4753 68.2629 77.5148 68.2604H77.9321V69.1079H77.4105C77.265 69.1174 77.1193 69.0942 76.9839 69.04C76.8485 68.9859 76.727 68.9021 76.6282 68.795C76.4266 68.5448 76.3244 68.2291 76.3413 67.9083V62.6926H77.241V67.9213ZM80.7877 69.2253C80.4239 69.26 80.057 69.2063 79.7184 69.0688C79.4228 68.9189 79.1846 68.6761 79.0404 68.3777C78.8749 68.0369 78.7944 67.6611 78.8057 67.2824V66.7739C78.7958 66.3799 78.8714 65.9884 79.0274 65.6264C79.164 65.3215 79.3918 65.0664 79.6793 64.8963C79.9939 64.7217 80.3499 64.6361 80.7094 64.6485C81.0539 64.6352 81.3931 64.7361 81.6743 64.9354C81.9633 65.1374 82.1821 65.4246 82.3002 65.7568C82.4476 66.1754 82.5183 66.6171 82.5088 67.0608V67.3607H79.4446V66.6435H81.6613C81.6505 66.335 81.5509 66.0362 81.3744 65.7829C81.2948 65.6843 81.1932 65.6058 81.0777 65.5537C80.9622 65.5016 80.836 65.4774 80.7094 65.483C80.5627 65.4732 80.4157 65.4976 80.28 65.5541C80.1442 65.6107 80.0234 65.6979 79.9271 65.809C79.7286 66.0802 79.6317 66.4125 79.6532 66.7478V67.3215C79.6402 67.478 79.6602 67.6354 79.7118 67.7837C79.7635 67.9319 79.8457 68.0677 79.9532 68.1821C80.0621 68.2905 80.1928 68.3745 80.3367 68.4285C80.4806 68.4824 80.6343 68.5051 80.7877 68.4951C80.9722 68.4942 81.1544 68.4542 81.3223 68.3777C81.5015 68.3109 81.6655 68.2089 81.8047 68.0778L82.3915 68.6646C82.1702 68.8725 81.9142 69.0402 81.6352 69.1601C81.3676 69.2764 81.0795 69.3385 80.7877 69.3426V69.2253ZM85.56 69.2253C85.1938 69.2371 84.8305 69.1564 84.5038 68.9906C84.2119 68.8418 83.9746 68.6044 83.8258 68.3125C83.6722 67.982 83.5964 67.6207 83.6041 67.2563V66.5001C83.5961 66.1399 83.6719 65.7827 83.8258 65.4569C83.9746 65.165 84.2119 64.9277 84.5038 64.7789C84.8339 64.624 85.1955 64.5481 85.56 64.5572C85.784 64.556 86.0074 64.5823 86.225 64.6355C86.4216 64.6941 86.61 64.7774 86.7857 64.8832C86.9427 64.993 87.0832 65.1247 87.2029 65.2744L86.564 65.8612C86.436 65.7188 86.2809 65.6036 86.1077 65.5221C85.9398 65.4456 85.7575 65.4056 85.573 65.4048C85.4278 65.3944 85.282 65.4146 85.145 65.464C85.008 65.5134 84.8829 65.591 84.7776 65.6916C84.6773 65.7997 84.6 65.9272 84.5507 66.0662C84.5014 66.2052 84.481 66.3529 84.4908 66.5001V67.2563C84.4807 67.4055 84.5009 67.5552 84.5502 67.6964C84.5995 67.8376 84.6769 67.9673 84.7776 68.0778C84.8813 68.1815 85.0058 68.2619 85.143 68.3136C85.2801 68.3653 85.4268 68.3872 85.573 68.3777C85.7585 68.3728 85.9408 68.3283 86.1077 68.2473C86.2841 68.1595 86.4397 68.0351 86.564 67.8822L87.2029 68.5081C87.0835 68.658 86.943 68.7898 86.7857 68.8993C86.6122 69.0063 86.423 69.0855 86.225 69.134C86.0079 69.1917 85.7846 69.2224 85.56 69.2253ZM89.9151 69.2253C89.5659 69.234 89.2202 69.1532 88.9111 68.9906C88.6332 68.836 88.4099 68.5991 88.2722 68.3125C88.1184 67.9775 88.0426 67.6119 88.0505 67.2433V66.5131C88.0413 66.1486 88.1172 65.787 88.2722 65.4569C88.4099 65.1703 88.6332 64.9334 88.9111 64.7789C89.2279 64.6327 89.5727 64.557 89.9216 64.557C90.2705 64.557 90.6153 64.6327 90.9321 64.7789C91.2101 64.9334 91.4333 65.1703 91.5711 65.4569C91.726 65.787 91.8019 66.1486 91.7927 66.5131V67.2563C91.8019 67.6208 91.726 67.9825 91.5711 68.3125C91.4333 68.5991 91.2101 68.836 90.9321 68.9906C90.6189 69.1548 90.2686 69.2356 89.9151 69.2253ZM89.9151 68.3777C90.0514 68.3846 90.1875 68.3613 90.3138 68.3095C90.44 68.2576 90.5532 68.1785 90.6453 68.0778C90.8252 67.8433 90.9133 67.5512 90.893 67.2563V66.5131C90.9133 66.2182 90.8252 65.9261 90.6453 65.6916C90.5526 65.5926 90.4389 65.5154 90.3126 65.4658C90.1863 65.4161 90.0505 65.3953 89.9151 65.4048C89.7818 65.3963 89.6482 65.4177 89.5242 65.4673C89.4001 65.517 89.2887 65.5936 89.1979 65.6916C89.0133 65.9243 88.9206 66.2166 88.9372 66.5131V67.2563C88.9206 67.5529 89.0133 67.8452 89.1979 68.0778C89.288 68.1775 89.399 68.2561 89.523 68.3079C89.647 68.3598 89.7808 68.3836 89.9151 68.3777ZM93.0575 64.6224H93.9442V69.1992H93.0575V64.6224ZM95.7567 66.461C95.776 66.1923 95.6921 65.9265 95.5219 65.7177C95.4362 65.6292 95.3325 65.5601 95.2178 65.5151C95.1031 65.4701 94.98 65.4503 94.8569 65.4569C94.609 65.4437 94.3656 65.528 94.1789 65.6916C94.0971 65.7757 94.0339 65.876 93.9935 65.9861C93.953 66.0962 93.9362 66.2136 93.9442 66.3306L93.8529 65.47C93.9774 65.2134 94.1661 64.9933 94.4006 64.8311C94.6258 64.6853 94.8886 64.6083 95.1568 64.6094C95.4364 64.5919 95.7141 64.6648 95.949 64.8175C96.1838 64.9701 96.3633 65.1944 96.4608 65.4569C96.5961 65.7745 96.667 66.1158 96.6694 66.461V69.1992H95.7697L95.7567 66.461ZM98.4688 66.461C98.4794 66.3268 98.463 66.1919 98.4204 66.0642C98.3779 65.9365 98.3101 65.8187 98.2211 65.7177C98.1275 65.6288 98.0168 65.5598 97.8958 65.515C97.7748 65.4701 97.6459 65.4504 97.5169 65.4569C97.3989 65.4498 97.2807 65.4682 97.1704 65.511C97.0601 65.5538 96.9604 65.6198 96.878 65.7047C96.7175 65.9224 96.6432 66.1917 96.6694 66.461L96.4868 65.5873C96.6078 65.3105 96.8015 65.0716 97.0475 64.8963C97.2749 64.7316 97.5492 64.6447 97.8299 64.6485C98.1222 64.638 98.4114 64.7103 98.6644 64.8571C98.8989 65.0159 99.0841 65.2372 99.199 65.4961C99.3209 65.8163 99.3785 66.1575 99.3685 66.5001V69.2383H98.4818L98.4688 66.461Z" fill="#2C4B6B"/>
<mask id="mask0_13_38" style="mask-type:luminance" maskUnits="userSpaceOnUse" x="68" y="62" width="32" height="8">
<path d="M68.2831 64.6746H70.3302V65.483H68.2831V64.6746ZM69.8087 69.2253C69.6621 69.2374 69.5147 69.2168 69.3772 69.1649C69.2396 69.1131 69.1153 69.0312 69.0133 68.9254C68.8253 68.6645 68.7331 68.3466 68.7525 68.0257V63.3576H69.6391V68.0387C69.6149 68.1195 69.6149 68.2056 69.6391 68.2864C69.6621 68.3162 69.6918 68.34 69.7258 68.3559C69.7599 68.3718 69.7972 68.3793 69.8347 68.3777H70.265V69.2253H69.8087ZM73.4075 69.2253C73.036 69.2331 72.6685 69.1479 72.3383 68.9775C72.0396 68.8318 71.8002 68.5878 71.6602 68.2864C71.4947 67.9456 71.4142 67.5698 71.4255 67.1911V66.6826C71.4117 66.2883 71.4874 65.896 71.6472 65.5352C71.78 65.2278 72.0087 64.9717 72.2991 64.805C72.6137 64.6305 72.9698 64.5448 73.3292 64.5572C73.6737 64.544 74.0129 64.6448 74.2941 64.8441C74.5828 65.0435 74.798 65.3321 74.907 65.6656C75.0654 66.0815 75.1407 66.5245 75.1287 66.9695V67.2694H72.0644V66.5522H74.2811C74.2703 66.2437 74.1707 65.9449 73.9942 65.6916C73.9147 65.593 73.813 65.5145 73.6975 65.4624C73.582 65.4103 73.4558 65.3861 73.3292 65.3917C73.1825 65.382 73.0355 65.4063 72.8998 65.4628C72.764 65.5194 72.6433 65.6066 72.5469 65.7177C72.3485 65.9889 72.2515 66.3212 72.2731 66.6565V67.2303C72.2606 67.3856 72.2796 67.5419 72.3289 67.6898C72.3782 67.8376 72.4568 67.974 72.5599 68.0909C72.6722 68.1983 72.8054 68.2815 72.9512 68.3353C73.097 68.3892 73.2523 68.4125 73.4075 68.4038C73.592 68.4029 73.7742 68.3629 73.9421 68.2864C74.1213 68.2196 74.2853 68.1177 74.4245 67.9865L75.0113 68.5733C74.7877 68.7783 74.5323 68.9456 74.255 69.0688C73.9874 69.1852 73.6993 69.2472 73.4075 69.2513V69.2253ZM77.241 67.9213C77.2371 68.0086 77.2598 68.095 77.3062 68.1691C77.3311 68.1999 77.3631 68.2242 77.3994 68.2401C77.4357 68.256 77.4753 68.2629 77.5148 68.2604H77.9321V69.1079H77.4105C77.265 69.1174 77.1193 69.0942 76.9839 69.04C76.8485 68.9859 76.727 68.9021 76.6282 68.795C76.4266 68.5448 76.3244 68.2291 76.3413 67.9083V62.6926H77.241V67.9213ZM80.7877 69.2253C80.4239 69.26 80.057 69.2063 79.7184 69.0688C79.4228 68.9189 79.1846 68.6761 79.0404 68.3777C78.8749 68.0369 78.7944 67.6611 78.8057 67.2824V66.7739C78.7958 66.3799 78.8714 65.9884 79.0274 65.6264C79.164 65.3215 79.3918 65.0664 79.6793 64.8963C79.9939 64.7217 80.3499 64.6361 80.7094 64.6485C81.0539 64.6352 81.3931 64.7361 81.6743 64.9354C81.9633 65.1374 82.1821 65.4246 82.3002 65.7568C82.4476 66.1754 82.5183 66.6171 82.5088 67.0608V67.3607H79.4446V66.6435H81.6613C81.6505 66.335 81.5509 66.0362 81.3744 65.7829C81.2948 65.6843 81.1932 65.6058 81.0777 65.5537C80.9622 65.5016 80.836 65.4774 80.7094 65.483C80.5627 65.4732 80.4157 65.4976 80.28 65.5541C80.1442 65.6107 80.0234 65.6979 79.9271 65.809C79.7286 66.0802 79.6317 66.4125 79.6532 66.7478V67.3215C79.6402 67.478 79.6602 67.6354 79.7118 67.7837C79.7635 67.9319 79.8457 68.0677 79.9532 68.1821C80.0621 68.2905 80.1928 68.3745 80.3367 68.4285C80.4806 68.4824 80.6343 68.5051 80.7877 68.4951C80.9722 68.4942 81.1544 68.4542 81.3223 68.3777C81.5015 68.3109 81.6655 68.2089 81.8047 68.0778L82.3915 68.6646C82.1702 68.8725 81.9142 69.0402 81.6352 69.1601C81.3676 69.2764 81.0795 69.3385 80.7877 69.3426V69.2253ZM85.56 69.2253C85.1938 69.2371 84.8305 69.1564 84.5038 68.9906C84.2119 68.8418 83.9746 68.6044 83.8258 68.3125C83.6722 67.982 83.5964 67.6207 83.6041 67.2563V66.5001C83.5961 66.1399 83.6719 65.7827 83.8258 65.4569C83.9746 65.165 84.2119 64.9277 84.5038 64.7789C84.8339 64.624 85.1955 64.5481 85.56 64.5572C85.784 64.556 86.0074 64.5823 86.225 64.6355C86.4216 64.6941 86.61 64.7774 86.7857 64.8832C86.9427 64.993 87.0832 65.1247 87.2029 65.2744L86.564 65.8612C86.436 65.7188 86.2809 65.6036 86.1077 65.5221C85.9398 65.4456 85.7575 65.4056 85.573 65.4048C85.4278 65.3944 85.282 65.4146 85.145 65.464C85.008 65.5134 84.8829 65.591 84.7776 65.6916C84.6773 65.7997 84.6 65.9272 84.5507 66.0662C84.5014 66.2052 84.481 66.3529 84.4908 66.5001V67.2563C84.4807 67.4055 84.5009 67.5552 84.5502 67.6964C84.5995 67.8376 84.6769 67.9673 84.7776 68.0778C84.8813 68.1815 85.0058 68.2619 85.143 68.3136C85.2801 68.3653 85.4268 68.3872 85.573 68.3777C85.7585 68.3728 85.9408 68.3283 86.1077 68.2473C86.2841 68.1595 86.4397 68.0351 86.564 67.8822L87.2029 68.5081C87.0835 68.658 86.943 68.7898 86.7857 68.8993C86.6122 69.0063 86.423 69.0855 86.225 69.134C86.0079 69.1917 85.7846 69.2224 85.56 69.2253ZM89.9151 69.2253C89.5659 69.234 89.2202 69.1532 88.9111 68.9906C88.6332 68.836 88.4099 68.5991 88.2722 68.3125C88.1184 67.9775 88.0426 67.6119 88.0505 67.2433V66.5131C88.0413 66.1486 88.1172 65.787 88.2722 65.4569C88.4099 65.1703 88.6332 64.9334 88.9111 64.7789C89.2279 64.6327 89.5727 64.557 89.9216 64.557C90.2705 64.557 90.6153 64.6327 90.9321 64.7789C91.2101 64.9334 91.4333 65.1703 91.5711 65.4569C91.726 65.787 91.8019 66.1486 91.7927 66.5131V67.2563C91.8019 67.6208 91.726 67.9825 91.5711 68.3125C91.4333 68.5991 91.2101 68.836 90.9321 68.9906C90.6189 69.1548 90.2686 69.2356 89.9151 69.2253ZM89.9151 68.3777C90.0514 68.3846 90.1875 68.3613 90.3138 68.3095C90.44 68.2576 90.5532 68.1785 90.6453 68.0778C90.8252 67.8433 90.9133 67.5512 90.893 67.2563V66.5131C90.9133 66.2182 90.8252 65.9261 90.6453 65.6916C90.5526 65.5926 90.4389 65.5154 90.3126 65.4658C90.1863 65.4161 90.0505 65.3953 89.9151 65.4048C89.7818 65.3963 89.6482 65.4177 89.5242 65.4673C89.4001 65.517 89.2887 65.5936 89.1979 65.6916C89.0133 65.9243 88.9206 66.2166 88.9372 66.5131V67.2563C88.9206 67.5529 89.0133 67.8452 89.1979 68.0778C89.288 68.1775 89.399 68.2561 89.523 68.3079C89.647 68.3598 89.7808 68.3836 89.9151 68.3777ZM93.0575 64.6224H93.9442V69.1992H93.0575V64.6224ZM95.7567 66.461C95.776 66.1923 95.6921 65.9265 95.5219 65.7177C95.4362 65.6292 95.3325 65.5601 95.2178 65.5151C95.1031 65.4701 94.98 65.4503 94.8569 65.4569C94.609 65.4437 94.3656 65.528 94.1789 65.6916C94.0971 65.7757 94.0339 65.876 93.9935 65.9861C93.953 66.0962 93.9362 66.2136 93.9442 66.3306L93.8529 65.47C93.9774 65.2134 94.1661 64.9933 94.4006 64.8311C94.6258 64.6853 94.8886 64.6083 95.1568 64.6094C95.4364 64.5919 95.7141 64.6648 95.949 64.8175C96.1838 64.9701 96.3633 65.1944 96.4608 65.4569C96.5961 65.7745 96.667 66.1158 96.6694 66.461V69.1992H95.7697L95.7567 66.461ZM98.4688 66.461C98.4794 66.3268 98.463 66.1919 98.4204 66.0642C98.3779 65.9365 98.3101 65.8187 98.2211 65.7177C98.1275 65.6288 98.0168 65.5598 97.8958 65.515C97.7748 65.4701 97.6459 65.4504 97.5169 65.4569C97.3989 65.4498 97.2807 65.4682 97.1704 65.511C97.0601 65.5538 96.9604 65.6198 96.878 65.7047C96.7175 65.9224 96.6432 66.1917 96.6694 66.461L96.4868 65.5873C96.6078 65.3105 96.8015 65.0716 97.0475 64.8963C97.2749 64.7316 97.5492 64.6447 97.8299 64.6485C98.1222 64.638 98.4114 64.7103 98.6644 64.8571C98.8989 65.0159 99.0841 65.2372 99.199 65.4961C99.3209 65.8163 99.3785 66.1575 99.3685 66.5001V69.2383H98.4818L98.4688 66.461Z" fill="white"/>
</mask>
<g mask="url(#mask0_13_38)">
<path d="M111.195 -13.9387H-15.533V117.027H111.195V-13.9387Z" fill="#2C4B6B"/>
</g>
</svg>
