<svg width="52" height="52" viewBox="0 0 52 52" fill="none" xmlns="http://www.w3.org/2000/svg">
<g clip-path="url(#clip0_78_195)">
<path d="M46.5833 52H5.41667C3.98008 52 2.60234 51.4293 1.58652 50.4135C0.570695 49.3976 0 48.0199 0 46.5833V5.41663C0 3.98004 0.570695 2.60228 1.58652 1.58646C2.60234 0.570639 3.98008 -4.01585e-05 5.41667 -4.01585e-05H20.5833C21.2914 -0.0020178 21.9927 0.136529 22.6468 0.407565C23.301 0.678601 23.8948 1.07674 24.394 1.57892C25.4138 2.59676 25.9909 3.97581 26 5.41663V22.75C26 23.6119 26.3424 24.4386 26.9519 25.0481C27.5614 25.6576 28.388 26 29.25 26H46.6077C47.3179 26.0024 48.0206 26.1455 48.6751 26.4212C49.3297 26.6969 49.9231 27.0996 50.421 27.606C50.923 28.1053 51.3209 28.6992 51.592 29.3533C51.863 30.0073 52.0017 30.7086 52 31.4166V46.5833C52 48.0199 51.4293 49.3976 50.4135 50.4135C49.3977 51.4293 48.0199 52 46.5833 52ZM5.41667 2.16663C4.55471 2.16663 3.72804 2.50903 3.11855 3.11853C2.50906 3.72802 2.16667 4.55467 2.16667 5.41663V46.5833C2.16667 47.4452 2.50906 48.2719 3.11855 48.8814C3.72804 49.4909 4.55471 49.8333 5.41667 49.8333H46.5833C47.4453 49.8333 48.272 49.4909 48.8814 48.8814C49.4909 48.2719 49.8333 47.4452 49.8333 46.5833V31.4166C49.8348 30.9939 49.7522 30.5751 49.5904 30.1845C49.4286 29.794 49.1908 29.4395 48.8908 29.1416C48.5944 28.8371 48.2403 28.5946 47.8493 28.4282C47.4583 28.2617 47.0381 28.1747 46.6132 28.172H29.25C27.8134 28.172 26.4357 27.6014 25.4198 26.5855C24.404 25.5697 23.8333 24.192 23.8333 22.7554V5.41663C23.8254 4.54951 23.476 3.72044 22.861 3.10912C22.5625 2.8093 22.2075 2.57163 21.8166 2.40985C21.4256 2.24808 21.0064 2.16541 20.5833 2.16663H5.41667Z" fill="#015DBC"/>
<path d="M49.6571 29.4585C49.5148 29.4586 49.3739 29.4307 49.2424 29.3763C49.1109 29.322 48.9914 29.2422 48.8907 29.1416L22.8609 3.10914C22.7561 3.00945 22.6724 2.88981 22.6146 2.75726C22.5568 2.6247 22.5262 2.48191 22.5245 2.33732C22.5228 2.19273 22.55 2.04926 22.6046 1.91536C22.6592 1.78147 22.7401 1.65987 22.8424 1.55771C22.9447 1.45556 23.0665 1.37491 23.2005 1.32055C23.3344 1.26619 23.478 1.23921 23.6226 1.24119C23.7672 1.24317 23.9099 1.27407 24.0423 1.33207C24.1748 1.39008 24.2943 1.47402 24.3938 1.57894L50.4236 27.625C50.5743 27.7766 50.6769 27.9695 50.7182 28.1793C50.7595 28.3891 50.7379 28.6064 50.6559 28.8039C50.574 29.0014 50.4353 29.1703 50.2576 29.2892C50.0799 29.4081 49.871 29.4717 49.6571 29.4721V29.4585Z" fill="#015DBC"/>
<path d="M44.0265 23.8334H29.2498C28.9625 23.8334 28.687 23.7192 28.4838 23.5161C28.2807 23.3129 28.1665 23.0373 28.1665 22.75V7.95168C28.1665 7.66436 28.2807 7.38881 28.4838 7.18565C28.687 6.98248 28.9625 6.86835 29.2498 6.86835C29.5372 6.86835 29.8127 6.98248 30.0159 7.18565C30.219 7.38881 30.3332 7.66436 30.3332 7.95168V21.6667H44.0265C44.3138 21.6667 44.5894 21.7808 44.7925 21.984C44.9957 22.1872 45.1099 22.4627 45.1099 22.75C45.1099 23.0373 44.9957 23.3129 44.7925 23.5161C44.5894 23.7192 44.3138 23.8334 44.0265 23.8334Z" fill="#015DBC"/>
<path d="M39.6933 19.5H33.5833C33.296 19.5 33.0205 19.3859 32.8173 19.1827C32.6142 18.9795 32.5 18.704 32.5 18.4167V12.285C32.5 11.9977 32.6142 11.7221 32.8173 11.519C33.0205 11.3158 33.296 11.2017 33.5833 11.2017C33.8707 11.2017 34.1462 11.3158 34.3494 11.519C34.5525 11.7221 34.6667 11.9977 34.6667 12.285V17.3333H39.6933C39.9807 17.3333 40.2562 17.4475 40.4594 17.6506C40.6625 17.8538 40.7767 18.1293 40.7767 18.4167C40.7767 18.704 40.6625 18.9795 40.4594 19.1827C40.2562 19.3859 39.9807 19.5 39.6933 19.5Z" fill="#015DBC"/>
<path d="M9.75 8.66667H7.58333C7.29602 8.66667 7.02048 8.55253 6.81732 8.34937C6.61415 8.1462 6.5 7.87065 6.5 7.58333C6.5 7.29602 6.61415 7.02046 6.81732 6.8173C7.02048 6.61414 7.29602 6.5 7.58333 6.5H9.75C10.0373 6.5 10.3129 6.61414 10.516 6.8173C10.7192 7.02046 10.8333 7.29602 10.8333 7.58333C10.8333 7.87065 10.7192 8.1462 10.516 8.34937C10.3129 8.55253 10.0373 8.66667 9.75 8.66667Z" fill="#015DBC"/>
<path d="M18.4167 8.66667H14.0833C13.796 8.66667 13.5205 8.55253 13.3173 8.34937C13.1142 8.1462 13 7.87065 13 7.58333C13 7.29602 13.1142 7.02046 13.3173 6.8173C13.5205 6.61414 13.796 6.5 14.0833 6.5H18.4167C18.704 6.5 18.9795 6.61414 19.1827 6.8173C19.3858 7.02046 19.5 7.29602 19.5 7.58333C19.5 7.87065 19.3858 8.1462 19.1827 8.34937C18.9795 8.55253 18.704 8.66667 18.4167 8.66667Z" fill="#015DBC"/>
<path d="M18.4167 15.1667H7.58333C7.29602 15.1667 7.02048 15.0525 6.81732 14.8494C6.61415 14.6462 6.5 14.3707 6.5 14.0833C6.5 13.796 6.61415 13.5205 6.81732 13.3173C7.02048 13.1141 7.29602 13 7.58333 13H18.4167C18.704 13 18.9795 13.1141 19.1827 13.3173C19.3858 13.5205 19.5 13.796 19.5 14.0833C19.5 14.3707 19.3858 14.6462 19.1827 14.8494C18.9795 15.0525 18.704 15.1667 18.4167 15.1667Z" fill="#015DBC"/>
<path d="M18.4167 21.6667H7.58333C7.29602 21.6667 7.02048 21.5525 6.81732 21.3494C6.61415 21.1462 6.5 20.8707 6.5 20.5833C6.5 20.296 6.61415 20.0205 6.81732 19.8173C7.02048 19.6141 7.29602 19.5 7.58333 19.5H18.4167C18.704 19.5 18.9795 19.6141 19.1827 19.8173C19.3858 20.0205 19.5 20.296 19.5 20.5833C19.5 20.8707 19.3858 21.1462 19.1827 21.3494C18.9795 21.5525 18.704 21.6667 18.4167 21.6667Z" fill="#015DBC"/>
<path d="M7.58333 47.6667C7.29602 47.6667 7.02048 47.5525 6.81732 47.3494C6.61415 47.1462 6.5 46.8707 6.5 46.5833V33.5833C6.5 33.296 6.61415 33.0205 6.81732 32.8173C7.02048 32.6141 7.29602 32.5 7.58333 32.5C7.87065 32.5 8.14619 32.6141 8.34935 32.8173C8.55251 33.0205 8.66667 33.296 8.66667 33.5833V46.5833C8.66667 46.8707 8.55251 47.1462 8.34935 47.3494C8.14619 47.5525 7.87065 47.6667 7.58333 47.6667Z" fill="#015DBC"/>
<path d="M18.4168 47.6667C18.1295 47.6667 17.854 47.5525 17.6508 47.3494C17.4476 47.1462 17.3335 46.8707 17.3335 46.5833V33.5833C17.3335 33.296 17.4476 33.0205 17.6508 32.8173C17.854 32.6141 18.1295 32.5 18.4168 32.5C18.7041 32.5 18.9797 32.6141 19.1828 32.8173C19.386 33.0205 19.5002 33.296 19.5002 33.5833V46.5833C19.5002 46.8707 19.386 47.1462 19.1828 47.3494C18.9797 47.5525 18.7041 47.6667 18.4168 47.6667Z" fill="#015DBC"/>
<path d="M27.0833 47.6667C26.796 47.6667 26.5205 47.5525 26.3173 47.3494C26.1142 47.1462 26 46.8707 26 46.5833V33.5833C26 33.296 26.1142 33.0205 26.3173 32.8173C26.5205 32.6141 26.796 32.5 27.0833 32.5C27.3707 32.5 27.6462 32.6141 27.8494 32.8173C28.0525 33.0205 28.1667 33.296 28.1667 33.5833V46.5833C28.1667 46.8707 28.0525 47.1462 27.8494 47.3494C27.6462 47.5525 27.3707 47.6667 27.0833 47.6667Z" fill="#015DBC"/>
<path d="M31.4168 43.3333C31.1295 43.3333 30.854 43.2192 30.6508 43.016C30.4476 42.8129 30.3335 42.5373 30.3335 42.25V33.5833C30.3335 33.296 30.4476 33.0205 30.6508 32.8173C30.854 32.6141 31.1295 32.5 31.4168 32.5C31.7041 32.5 31.9797 32.6141 32.1828 32.8173C32.386 33.0205 32.5002 33.296 32.5002 33.5833V42.25C32.5002 42.5373 32.386 42.8129 32.1828 43.016C31.9797 43.2192 31.7041 43.3333 31.4168 43.3333Z" fill="#015DBC"/>
<path d="M40.0833 43.3333C39.796 43.3333 39.5205 43.2192 39.3173 43.016C39.1142 42.8129 39 42.5373 39 42.25V33.5833C39 33.296 39.1142 33.0205 39.3173 32.8173C39.5205 32.6141 39.796 32.5 40.0833 32.5C40.3707 32.5 40.6462 32.6141 40.8494 32.8173C41.0525 33.0205 41.1667 33.296 41.1667 33.5833V42.25C41.1667 42.5373 41.0525 42.8129 40.8494 43.016C40.6462 43.2192 40.3707 43.3333 40.0833 43.3333Z" fill="#015DBC"/>
<path d="M44.4168 47.6667C44.1295 47.6667 43.854 47.5525 43.6508 47.3494C43.4476 47.1462 43.3335 46.8707 43.3335 46.5833V33.5833C43.3335 33.296 43.4476 33.0205 43.6508 32.8173C43.854 32.6141 44.1295 32.5 44.4168 32.5C44.7041 32.5 44.9797 32.6141 45.1828 32.8173C45.386 33.0205 45.5002 33.296 45.5002 33.5833V46.5833C45.5002 46.8707 45.386 47.1462 45.1828 47.3494C44.9797 47.5525 44.7041 47.6667 44.4168 47.6667Z" fill="#015DBC"/>
<path d="M22.7498 43.3333C22.4625 43.3333 22.187 43.2192 21.9838 43.016C21.7807 42.8129 21.6665 42.5373 21.6665 42.25V33.5833C21.6665 33.296 21.7807 33.0205 21.9838 32.8173C22.187 32.6141 22.4625 32.5 22.7498 32.5C23.0372 32.5 23.3127 32.6141 23.5159 32.8173C23.719 33.0205 23.8332 33.296 23.8332 33.5833V42.25C23.8332 42.5373 23.719 42.8129 23.5159 43.016C23.3127 43.2192 23.0372 43.3333 22.7498 43.3333Z" fill="#015DBC"/>
<path d="M13.0002 32.5H11.9168C11.3185 32.5 10.8335 32.985 10.8335 33.5833V42.25C10.8335 42.8483 11.3185 43.3333 11.9168 43.3333H13.0002C13.5985 43.3333 14.0835 42.8483 14.0835 42.25V33.5833C14.0835 32.985 13.5985 32.5 13.0002 32.5Z" fill="#015DBC"/>
<path d="M36.8332 32.5H35.7498C35.1515 32.5 34.6665 32.985 34.6665 33.5833V42.25C34.6665 42.8483 35.1515 43.3333 35.7498 43.3333H36.8332C37.4315 43.3333 37.9165 42.8483 37.9165 42.25V33.5833C37.9165 32.985 37.4315 32.5 36.8332 32.5Z" fill="#015DBC"/>
</g>
<defs>
<clipPath id="clip0_78_195">
<rect width="52" height="52" fill="white"/>
</clipPath>
</defs>
</svg>
