<?xml version="1.0" encoding="UTF-8"?>
<svg width="24px" height="24px" viewBox="0 0 24 24" version="1.1" xmlns="http://www.w3.org/2000/svg" xmlns:xlink="http://www.w3.org/1999/xlink">
    <!-- Generator: Sketch 63.1 (92452) - https://sketch.com -->
    <title>tg</title>
    <desc>Created with Sketch.</desc>
    <g id="Page-1" stroke="none" stroke-width="1" fill="none" fill-rule="evenodd">
        <g id="iconmonstr-telegram-3" fill="#FFFFFF">
            <path d="M19,24 L5,24 C2.239,24 0,21.761 0,19 L0,5 C0,2.239 2.239,0 5,0 L19,0 C21.762,0 24,2.239 24,5 L24,19 C24,21.761 21.762,24 19,24 Z M16.994,18.949 C17.24,18.856 17.422,18.645 17.477,18.389 C18.056,15.667 19.462,8.775 19.989,6.299 C20.028,6.112 19.962,5.918 19.816,5.793 C19.669,5.669 19.465,5.633 19.284,5.7 C16.489,6.734 7.88,9.964 4.361,11.267 C4.138,11.349 3.993,11.564 4,11.8 C4.008,12.035 4.167,12.24 4.395,12.309 C5.973,12.78 8.045,13.437 8.045,13.437 C8.045,13.437 9.012,16.361 9.517,17.847 C9.58,18.034 9.727,18.181 9.919,18.231 C10.112,18.281 10.316,18.229 10.46,18.093 C11.271,17.328 12.524,16.145 12.524,16.145 C12.524,16.145 14.905,17.891 16.256,18.852 C16.471,19.005 16.747,19.043 16.994,18.949 Z M10.035,16.76 L10.284,14.422 C10.284,14.422 14.608,10.522 17.074,8.298 C17.146,8.233 17.156,8.124 17.096,8.047 C17.036,7.97 16.927,7.952 16.845,8.004 C13.988,9.829 8.916,13.068 8.916,13.068 L10.035,16.76 Z" id="tg"></path>
        </g>
    </g>
</svg>