<?xml version="1.0" encoding="UTF-8"?>
<svg width="24px" height="24px" viewBox="0 0 24 24" version="1.1" xmlns="http://www.w3.org/2000/svg"
    xmlns:xlink="http://www.w3.org/1999/xlink">
    <!-- Generator: Sketch 63.1 (92452) - https://sketch.com -->
    <title>whatsapp</title>
    <desc>Created with Sketch.</desc>
    <g id="Page-1" stroke="none" stroke-width="1" fill="none" fill-rule="evenodd">
        <g id="whatsapp" fill="#2C4B6B" fill-rule="nonzero">
            <path
                d="M12.036,5.339 C8.401,5.339 5.445,8.295 5.44299828,11.928 C5.442,13.411 5.877,14.522 6.607,15.684 L5.941,18.116 L8.435,17.462 C9.552,18.125 10.619,18.523 12.03,18.523 C15.662,18.523 18.621,15.567 18.6220023,11.933 C18.625,8.292 15.68,5.34 12.036,5.339 Z M15.912,14.762 C15.747,15.225 14.955,15.647 14.575,15.704 C14.234,15.755 13.802,15.776 13.327,15.626 C13.039,15.535 12.67,15.413 12.198,15.209 C10.211,14.351 8.913,12.35 8.814,12.218 C8.715,12.086 8.005,11.144 8.005,10.169 C8.005,9.194 8.517,8.715 8.698,8.516 C8.88,8.316 9.094,8.266 9.226,8.266 L9.606,8.273 C9.728,8.279 9.891,8.227 10.052,8.613 C10.217,9.01 10.613,9.985 10.663,10.084 C10.712,10.183 10.746,10.299 10.679,10.431 C10.613,10.563 10.58,10.646 10.481,10.761 L10.184,11.108 C10.085,11.207 9.982,11.314 10.097,11.512 C10.213,11.71 10.61,12.359 11.199,12.884 C11.956,13.559 12.594,13.768 12.792,13.867 C12.99,13.966 13.106,13.95 13.221,13.817 C13.337,13.685 13.716,13.239 13.848,13.04 C13.98,12.841 14.112,12.875 14.294,12.941 C14.476,13.007 15.45,13.486 15.648,13.586 C15.846,13.685 15.978,13.735 16.028,13.817 C16.077,13.902 16.077,14.299 15.912,14.762 L15.912,14.762 Z M19,0 L5,0 C2.239,0 0,2.239 0,5 L0,19 C0,21.761 2.239,24 5,24 L19,24 C21.762,24 24,21.761 24,19 L24,5 C24,2.239 21.762,0 19,0 Z M12.033,19.862 C10.706,19.862 9.399,19.529 8.241,18.897 L4.038,20 L5.163,15.892 C4.469,14.69 4.104,13.326 4.105,11.928 C4.107,7.556 7.663,4 12.033,4 C14.154,4.001 16.145,4.827 17.642,6.325 C19.139,7.823 19.963,9.816 19.9620009,11.934 C19.96,16.306 16.403,19.862 12.033,19.862 Z"
                id="Shape"></path>
        </g>
    </g>
</svg>